<svg width="18" height="18" viewBox="0 0 18 18" xmlns="http://www.w3.org/2000/svg">
    <path d="M7.012 11.143c2.989 0 5.512.475 5.512 2.312 0 1.836-2.54 2.295-5.512 2.295-2.989 0-5.512-.475-5.512-2.312 0-1.835 2.54-2.295 5.512-2.295zm4.665-1.106c1.137-.021 2.36.132 2.81.24.958.183 1.587.556 1.847 1.1.221.446.221.963 0 1.409-.398.842-1.684 1.113-2.184 1.183a.155.155 0 0 1-.175-.174c.255-2.335-1.775-3.441-2.3-3.696-.023-.012-.028-.03-.026-.04.002-.008.011-.02.028-.022zm-4.665-.643c2.025 0 3.647-1.59 3.647-3.572 0-1.983-1.622-3.572-3.647-3.572-2.024 0-3.647 1.589-3.647 3.572s1.623 3.572 3.647 3.572m5.118-3.507c0 1.01-.31 1.951-.853 2.734-.056.08-.006.19.092.206.137.023.277.036.42.04 1.424.036 2.701-.862 3.054-2.214.523-2.005-1.012-3.806-2.968-3.806a3.12 3.12 0 0 0-.613.06c-.027.006-.057.02-.071.042-.02.03-.005.068.014.093a4.81 4.81 0 0 1 .925 2.845" fill="#939B9D" fill-rule="nonzero"/>
</svg>
