<svg width="18" height="18" viewBox="0 0 18 18" xmlns="http://www.w3.org/2000/svg">
    <path d="M12.815 5.25c.948 0 1.942.682 2.293 2.34l.577 4.646c.424 3.03-1.28 4.264-3.566 4.264H5.9c-2.293 0-4.05-.853-3.572-4.264l.583-4.646c.298-1.706 1.326-2.34 2.287-2.34zM6.823 7.747a.673.673 0 0 0-.663.682c0 .377.297.682.663.682a.673.673 0 0 0 .663-.682l-.008-.1a.67.67 0 0 0-.655-.582zm4.341 0a.673.673 0 0 0-.662.682c0 .377.296.682.662.682a.673.673 0 0 0 .663-.682.673.673 0 0 0-.663-.682zM9.004 1.5c2.01 0 3.662 1.58 3.746 3.58h-.02a.376.376 0 0 1-.032.17H11.62a.487.487 0 0 1-.033-.17 2.608 2.608 0 0 0-2.613-2.603A2.608 2.608 0 0 0 6.361 5.08c.01.056.01.113 0 .169H5.257a.487.487 0 0 1 0-.17A3.744 3.744 0 0 1 9.004 1.5z" fill="#939B9D" fill-rule="nonzero"/>
</svg>
