<?xml version="1.0" encoding="UTF-8"?>
<svg width="20px" height="20px" viewBox="0 0 20 20" version="1.1" xmlns="http://www.w3.org/2000/svg" xmlns:xlink="http://www.w3.org/1999/xlink">
    <title>57E35CFB-31D3-4992-A7ED-442AE14D2F32</title>
    <g id="--00-UIkit" stroke="none" stroke-width="1" fill="none" fill-rule="evenodd" stroke-linecap="round" stroke-linejoin="round">
        <g id="UIkit" transform="translate(-1253.000000, -1621.000000)" stroke="#939B9D" stroke-width="1.5">
            <g id="Iconly/Light/Edit" transform="translate(1253.000000, 1621.000000)">
                <g id="Edit" transform="translate(2.500000, 2.500000)">
                    <line x1="8.95616632" y1="14.5357543" x2="15" y2="14.5357543" id="Stroke-1"></line>
                    <path d="M8.15000592,0.662327156 C8.79637483,-0.110177769 9.95832247,-0.223453732 10.7468546,0.409777469 C10.7904514,0.444131654 12.1912333,1.53232369 12.1912333,1.53232369 C13.0574813,2.05599289 13.3266438,3.1692542 12.7911622,4.01882392 C12.7627295,4.06432 4.8432887,13.9703958 4.8432887,13.9703958 C4.57981281,14.2990818 4.17986019,14.4931365 3.75242268,14.4977789 L0.719606664,14.5358471 L0.0362753045,11.6435961 C-0.0594479511,11.2369168 0.0362753045,10.8098107 0.299751196,10.4811247 L8.15000592,0.662327156 Z" id="Stroke-3"></path>
                    <line x1="6.68401847" y1="2.50074032" x2="11.227556" y2="5.99001136" id="Stroke-5"></line>
                </g>
            </g>
        </g>
    </g>
</svg>