<svg width="24" height="24" viewBox="0 0 24 24" xmlns="http://www.w3.org/2000/svg">
    <path d="M6.25 3.5c-2.75 0-2.75.208-2.75 2.75v.025c0 1.107 0 1.907.271 2.245.265.328 1.052.48 2.479.48s2.214-.153 2.479-.481C9 8.182 9 7.382 9 6.274 9 3.708 9 3.5 6.25 3.5m0 7c-1.686 0-2.951-.177-3.646-1.04C2 8.711 2 7.689 2 6.275l.75-.025H2C2 3.38 2.181 2 6.25 2s4.25 1.38 4.25 4.25c0 1.438 0 2.461-.604 3.21-.695.863-1.96 1.04-3.646 1.04m11-7c-2.75 0-2.75.208-2.75 2.75v.025c0 1.107 0 1.907.271 2.245.265.328 1.052.48 2.479.48s2.214-.153 2.479-.481C20 8.182 20 7.382 20 6.274 20 3.708 20 3.5 17.25 3.5m0 7c-1.686 0-2.951-.177-3.646-1.04C13 8.711 13 7.689 13 6.275l.75-.025H13C13 3.38 13.181 2 17.25 2s4.25 1.38 4.25 4.25c0 1.438 0 2.461-.604 3.21-.695.863-1.96 1.04-3.646 1.04m-11 4c-2.75 0-2.75.208-2.75 2.75v.025c0 1.107 0 1.907.271 2.245.265.328 1.052.48 2.479.48s2.214-.153 2.479-.481C9 19.182 9 18.382 9 17.274 9 14.708 9 14.5 6.25 14.5m0 7c-1.686 0-2.951-.177-3.646-1.04C2 19.711 2 18.689 2 17.275l.75-.025H2C2 14.38 2.181 13 6.25 13s4.25 1.38 4.25 4.25c0 1.438 0 2.461-.604 3.21-.695.863-1.96 1.04-3.646 1.04m11-7c-2.75 0-2.75.208-2.75 2.75v.025c0 1.107 0 1.907.271 2.245.265.328 1.052.48 2.479.48s2.214-.153 2.479-.481c.271-.337.271-1.137.271-2.245 0-2.566 0-2.774-2.75-2.774m0 7c-1.686 0-2.951-.177-3.646-1.04C13 19.711 13 18.689 13 17.275l.75-.025H13c0-2.87.181-4.25 4.25-4.25s4.25 1.38 4.25 4.25c0 1.438 0 2.461-.604 3.21-.695.863-1.96 1.04-3.646 1.04" fill="#41C9CA" fill-rule="evenodd"/>
</svg>
