<svg width="18" height="18" viewBox="0 0 18 18" xmlns="http://www.w3.org/2000/svg">
    <path d="M11.587 2.835c-.03.188-.045.375-.045.563a3.048 3.048 0 0 0 3.045 3.051c.188 0 .368-.021.555-.051v6.051c0 2.544-1.5 4.051-4.05 4.051H5.551C3 16.5 1.5 14.993 1.5 12.45V6.9c0-2.55 1.5-4.065 4.05-4.065zm.151 4.56a.576.576 0 0 0-.526.233L9.398 9.975 7.32 8.34a.592.592 0 0 0-.428-.12.581.581 0 0 0-.375.224l-2.219 2.889-.046.067a.56.56 0 0 0 .158.713.63.63 0 0 0 .345.112.532.532 0 0 0 .442-.225L7.08 9.577l2.137 1.606.068.044c.24.127.54.068.712-.158l2.168-2.796-.03.015a.562.562 0 0 0-.397-.893zM14.692 1.5a1.808 1.808 0 0 1 0 3.615 1.808 1.808 0 0 1 0-3.615z" fill="#939B9D" fill-rule="nonzero"/>
</svg>
