<svg width="26" height="26" viewBox="0 0 26 26" xmlns="http://www.w3.org/2000/svg">
    <g stroke="#939B9D" stroke-width="1.5" fill="none" fill-rule="evenodd" stroke-linecap="round" stroke-linejoin="round">
        <path d="M11.191 17.976H4.365M14.235 7.475h6.826M9.453 7.417a2.551 2.551 0 0 0-2.56-2.542 2.551 2.551 0 0 0-2.56 2.542 2.551 2.551 0 0 0 2.56 2.542 2.551 2.551 0 0 0 2.56-2.542zM21.667 17.933a2.55 2.55 0 0 0-2.56-2.542 2.551 2.551 0 0 0-2.56 2.542 2.551 2.551 0 0 0 2.56 2.542 2.55 2.55 0 0 0 2.56-2.542z"/>
    </g>
</svg>
