<?xml version="1.0" encoding="UTF-8"?>
<svg width="20px" height="20px" viewBox="0 0 20 20" version="1.1" xmlns="http://www.w3.org/2000/svg" xmlns:xlink="http://www.w3.org/1999/xlink">
    <title>5715689E-B43E-4FF7-8C23-9247211584A9</title>
    <g id="--00-UIkit" stroke="none" stroke-width="1" fill="none" fill-rule="evenodd" stroke-linecap="round" stroke-linejoin="round">
        <g id="UIkit" transform="translate(-1295.000000, -1621.000000)" stroke="#939B9D" stroke-width="1.5">
            <g id="Iconly/Light/Delete" transform="translate(1295.000000, 1621.000000)">
                <g id="Delete" transform="translate(2.500000, 1.666667)">
                    <path d="M13.6040833,6.2235 C13.6040833,6.2235 13.1515833,11.836 12.8890833,14.2001667 C12.7640833,15.3293333 12.0665833,15.991 10.9240833,16.0118333 C8.74991667,16.051 6.57325,16.0535 4.39991667,16.0076667 C3.30075,15.9851667 2.61491667,15.3151667 2.49241667,14.206 C2.22825,11.821 1.77825,6.2235 1.77825,6.2235" id="Stroke-1"></path>
                    <line x1="14.7568333" y1="3.53308333" x2="0.625166667" y2="3.53308333" id="Stroke-3"></line>
                    <path d="M12.0338333,3.53308333 C11.3796667,3.53308333 10.8163333,3.07058333 10.688,2.42975 L10.4855,1.41641667 C10.3605,0.948916667 9.93716667,0.625583333 9.45466667,0.625583333 L5.92716667,0.625583333 C5.44466667,0.625583333 5.02133333,0.948916667 4.89633333,1.41641667 L4.69383333,2.42975 C4.5655,3.07058333 4.00216667,3.53308333 3.348,3.53308333" id="Stroke-5"></path>
                </g>
            </g>
        </g>
    </g>
</svg>