<svg width="30" height="30" viewBox="0 0 30 30" xmlns="http://www.w3.org/2000/svg" xmlns:xlink="http://www.w3.org/1999/xlink">
    <defs>
        <path id="uux0t0ypya" d="M0 0h30v30H0z"/>
    </defs>
    <g fill="none" fill-rule="evenodd">
        <mask id="ppe2m6awjb" fill="#fff">
            <use xlink:href="#uux0t0ypya"/>
        </mask>
        <path d="M7.564 14.42c2.908-4.428 5.4-7.393 7.477-8.895 3.512-2.54 10.897-4.141 12.236-3.34 1.339.8-.676 7.873-3.223 11.528-1.5 2.151-4.556 4.87-9.166 8.157a2.652 2.652 0 0 1-3.485-.35l-3.565-3.826a2.658 2.658 0 0 1-.274-3.274z" stroke="#8C3CEE" stroke-width="1.329" mask="url(#ppe2m6awjb)"/>
        <circle stroke="#8C3CEE" stroke-width="1.329" mask="url(#ppe2m6awjb)" cx="19" cy="10.333" r="2.333"/>
        <path stroke="#8C3CEE" stroke-width="1.329" mask="url(#ppe2m6awjb)" d="m8.851 12.667 7.482 7.666M13.43 6.406c-2.039-.485-3.565-.485-4.579 0-3.734 1.788-6.657 5.5-7.227 6.26-.524.698.579.86 2.46 1.038l3.61.339"/>
        <path d="M25.43 17.74c-2.039-.486-3.565-.486-4.579 0-3.734 1.787-6.657 5.5-7.227 6.26-.524.697.579.86 2.46 1.037l3.61.339" stroke="#8C3CEE" stroke-width="1.329" mask="url(#ppe2m6awjb)" transform="scale(-1 1) rotate(-86 0 42.246)"/>
        <path stroke="#8C3CEE" stroke-width="1.329" stroke-linecap="round" stroke-linejoin="round" mask="url(#ppe2m6awjb)" d="m5.35 18.474-2.902 2.902M10.683 23.807l-2.902 2.902M8.017 21.14l-6.402 6.322"/>
    </g>
</svg>
