<?xml version="1.0" encoding="UTF-8"?>
<svg width="18px" height="18px" viewBox="0 0 18 18" version="1.1" xmlns="http://www.w3.org/2000/svg" xmlns:xlink="http://www.w3.org/1999/xlink">
    <title>2B85E9F5-63B0-419E-A961-22A853A9FD0B</title>
    <g id="--00-UIkit" stroke="none" stroke-width="1" fill="none" fill-rule="evenodd">
        <g id="UIkit" transform="translate(-1189.000000, -1624.000000)" fill="#C7CCCD">
            <g id="Iconly/Bold/Info-Circle-2" transform="translate(1189.000000, 1624.000000)">
                <path d="M9,2.625 C12.51525,2.625 15.375,5.48475 15.375,9 C15.375,12.51525 12.51525,15.375 9,15.375 C5.48475,15.375 2.625,12.51525 2.625,9 C2.625,5.48475 5.48475,2.625 9,2.625 Z M8.995575,8.4375 C8.685075,8.4375 8.433075,8.6895 8.433075,9 L8.433075,9 L8.433075,12 C8.433075,12.3105 8.685075,12.5625 8.995575,12.5625 C9.306075,12.5625 9.558075,12.3105 9.558075,12 L9.558075,12 L9.558075,9 C9.558075,8.6895 9.306075,8.4375 8.995575,8.4375 Z M8.99925,5.403075 C8.57775,5.403075 8.2455,5.738325 8.2455,6.153075 C8.2455,6.567825 8.5845,6.903075 8.99925,6.903075 C9.414,6.903075 9.74925,6.567825 9.74925,6.153075 C9.74925,5.738325 9.414,5.403075 8.99925,5.403075 L8.99925,5.403075 Z" id="Combined-Shape"></path>
            </g>
        </g>
    </g>
</svg>