<!-- Generated by IcoMoon.io -->
<svg version="1.1" xmlns="http://www.w3.org/2000/svg" width="32" height="32" viewBox="0 0 32 32">
<path d="M18.182 8.727c0 1.205-0.977 2.182-2.182 2.182s-2.182-0.977-2.182-2.182c0-1.205 0.977-2.182 2.182-2.182s2.182 0.977 2.182 2.182z"></path>
<path d="M18.182 16c0 1.205-0.977 2.182-2.182 2.182s-2.182-0.977-2.182-2.182c0-1.205 0.977-2.182 2.182-2.182s2.182 0.977 2.182 2.182z"></path>
<path d="M18.182 23.273c0 1.205-0.977 2.182-2.182 2.182s-2.182-0.977-2.182-2.182c0-1.205 0.977-2.182 2.182-2.182s2.182 0.977 2.182 2.182z"></path>
</svg>
