<!-- Generated by IcoMoon.io -->
<svg version="1.1" xmlns="http://www.w3.org/2000/svg" width="32" height="32" viewBox="0 0 32 32">
<path d="M17.455 28.073h-8.727c-2.182 0-4.073-1.745-4.073-4.073v-10.182c0-2.182 1.745-4.073 4.073-4.073h8.727c2.182 0 4.073 1.745 4.073 4.073v10.182c0 2.182-1.891 4.073-4.073 4.073zM8.727 12.073c-1.018 0-1.745 0.727-1.745 1.745v10.182c0 1.018 0.873 1.745 1.745 1.745h8.727c1.018 0 1.745-0.873 1.745-1.745v-10.182c0-1.018-0.873-1.745-1.745-1.745h-8.727z"></path>
<path d="M23.273 22.255h-2.909v-2.182h2.909c1.018 0 1.745-0.873 1.745-1.745v-10.327c0-1.018-0.873-1.745-1.745-1.745h-8.727c-1.018 0-1.745 0.727-1.745 1.745v2.909h-2.327v-2.909c0-2.182 1.745-4.073 4.073-4.073h8.727c2.182 0 4.073 1.745 4.073 4.073v10.182c0 2.182-1.891 4.073-4.073 4.073z"></path>
</svg>
