<!-- Generated by IcoMoon.io -->
<svg version="1.1" xmlns="http://www.w3.org/2000/svg" width="32" height="32" viewBox="0 0 32 32">
<path d="M28 28.48h-9.6c-0.64 0-1.28-0.48-1.28-1.28s0.48-1.28 1.28-1.28h9.6c0.64 0 1.28 0.48 1.28 1.28s-0.64 1.28-1.28 1.28z"></path>
<path d="M5.12 28.48c-0.48 0-0.96-0.32-1.12-0.96l-1.12-4.64c-0.16-0.96 0-2.080 0.64-2.88l12.48-15.68c0 0 0 0 0 0 1.44-1.76 4-1.92 5.76-0.64 0.16 0.16 2.24 1.76 2.24 1.76 0.8 0.48 1.44 1.44 1.76 2.4 0.32 1.12 0 2.24-0.48 3.040 0 0 0 0.16-12.8 16-0.64 0.8-1.6 1.28-2.72 1.28l-4.64 0.32c0 0 0 0 0 0zM17.92 5.76l-12.48 15.84c-0.16 0.16-0.32 0.48-0.16 0.8l0.8 3.68h3.84c0.32 0 0.64-0.16 0.8-0.32 4.32-5.28 12.48-15.52 12.64-15.84s0.32-0.8 0.16-1.12c-0.16-0.48-0.32-0.8-0.8-1.12-0.16 0-2.4-1.76-2.4-1.92-0.64-0.8-1.76-0.64-2.4 0z"></path>
<path d="M21.92 14.72c-0.32 0-0.48-0.16-0.8-0.32l-7.2-5.44c-0.48-0.48-0.64-1.12-0.16-1.76 0.48-0.48 1.12-0.64 1.76-0.16l7.2 5.6c0.48 0.48 0.64 1.12 0.16 1.76-0.16 0.16-0.48 0.32-0.96 0.32z"></path>
</svg>
