<!-- Generated by IcoMoon.io -->
<svg version="1.1" xmlns="http://www.w3.org/2000/svg" width="32" height="32" viewBox="0 0 32 32">
<path d="M16 29.333q-2.767 0-5.2-1.050t-4.233-2.85-2.85-4.233-1.050-5.2q0-2.8 1.050-5.217t2.85-4.217l1.867 1.867q-1.467 1.467-2.283 3.4t-0.817 4.167q0 4.467 3.1 7.567t7.567 3.1 7.567-3.1 3.1-7.567q0-2.233-0.817-4.167t-2.283-3.4l1.867-1.867q1.8 1.8 2.85 4.217t1.050 5.217q0 2.767-1.050 5.2t-2.85 4.233-4.233 2.85-5.2 1.050zM14.667 17.333v-14.667h2.667v14.667h-2.667z"></path>
</svg>
