<!-- Generated by IcoMoon.io -->
<svg version="1.1" xmlns="http://www.w3.org/2000/svg" width="32" height="32" viewBox="0 0 32 32">
<path d="M16.356 29.689c-1.778 0-3.556 0-5.333 0-2.489 0-4.089-1.6-4.267-4.089-0.356-3.733-1.067-12.8-1.067-12.8 0-0.711 0.533-1.422 1.244-1.422s1.422 0.533 1.422 1.244c0 0.178 0.711 9.067 1.067 12.8 0.178 1.422 1.067 1.6 1.778 1.778 3.378 0 6.756 0 10.311 0 1.067 0 1.778-0.533 1.778-1.778 0.356-3.733 1.067-12.622 1.067-12.8 0-0.711 0.711-1.244 1.422-1.244s1.244 0.711 1.244 1.422c0 0.178-0.711 9.067-1.067 12.8-0.356 2.489-1.956 4.089-4.444 4.089-1.778 0-3.556 0-5.156 0zM23.289 9.6v0h-13.867c0 0 0 0 0 0h-4.444c-0.711 0-1.422-0.533-1.422-1.422s0.533-1.422 1.422-1.422h4.444c0.356 0 0.711-0.356 0.889-0.711l0.356-1.6c0.356-1.422 1.6-2.311 3.022-2.311h5.689c0 0 0 0 0 0 1.422 0 2.667 0.889 3.022 2.311l0.356 1.778c0 0.356 0.356 0.711 0.889 0.711h4.444c0.711 0 1.422 0.533 1.422 1.422s-0.533 1.422-1.422 1.422h-4.8c0-0.178 0-0.178 0-0.178zM12.8 6.933h7.111c0 0 0-0.178 0-0.178l-0.356-1.6c0 0-0.178-0.178-0.356-0.178v0h-5.689c-0.178 0-0.356 0.178-0.356 0.356l-0.356 1.6c0 0 0 0 0 0z"></path>
</svg>
