<!-- Generated by IcoMoon.io -->
<svg version="1.1" xmlns="http://www.w3.org/2000/svg" width="32" height="32" viewBox="0 0 32 32">
<path d="M15.733 29.867c-2.533 0-10.133 0-10.133-4.8 0-3.733 4.667-6.933 10.133-6.933s10.133 3.2 10.133 6.933c0 4.8-7.6 4.8-10.133 4.8zM15.733 20.133c-4.667 0-8.133 2.533-8.133 4.933 0 1.867 2.8 2.8 8.133 2.8s8.133-0.933 8.133-2.8c0-2.4-3.467-4.933-8.133-4.933zM15.733 15.867v0c-1.867 0-3.6-0.667-4.8-2-1.333-1.333-2-3.067-2-4.8 0-3.733 3.067-6.8 6.8-6.933 3.867 0 6.933 3.2 6.933 6.933s-3.067 6.8-6.933 6.8zM15.733 4.133c-2.667 0-4.8 2.133-4.8 4.8 0 1.333 0.533 2.533 1.467 3.467s2.133 1.467 3.467 1.467v0c2.667 0 4.8-2.133 4.8-4.8s-2.267-4.933-4.933-4.933z"></path>
</svg>
