<!-- Generated by IcoMoon.io -->
<svg version="1.1" xmlns="http://www.w3.org/2000/svg" width="32" height="32" viewBox="0 0 32 32">
<path d="M13.785 25.354c-0.246 0-0.492-0.123-0.615-0.246l-8.123-8c-0.123-0.123-0.246-0.369-0.246-0.615v0 0c0-0.246 0.123-0.492 0.246-0.738l8-8c0.369-0.369 0.985-0.369 1.354 0 0.369 0.246 0.369 0.862 0 1.231l-6.523 6.4h17.723c0.492 0 0.985 0.369 0.985 0.985s-0.369 0.862-0.862 0.862h-17.846l6.523 6.4c0.369 0.369 0.369 0.985 0 1.354-0.246 0.246-0.369 0.369-0.615 0.369z"></path>
</svg>
