<!-- Generated by IcoMoon.io -->
<svg version="1.1" xmlns="http://www.w3.org/2000/svg" width="32" height="32" viewBox="0 0 32 32">
<path d="M28.267 20.533h-5.2c-2.4 0-4.4-2-4.4-4.4s2-4.4 4.4-4.4h5.2c0.533 0 1.067 0.4 1.067 1.067s-0.4 1.067-1.067 1.067h-5.2c-1.333 0-2.4 1.067-2.4 2.4s1.067 2.4 2.4 2.4h5.2c0.533 0 1.067 0.4 1.067 1.067s-0.533 0.8-1.067 0.8zM23.6 17.067h-0.4c-0.533 0-1.067-0.4-1.067-1.067s0.4-1.067 1.067-1.067h0.4c0.533 0 1.067 0.4 1.067 1.067s-0.533 1.067-1.067 1.067zM15.6 11.867h-5.467c-0.533 0-1.067-0.4-1.067-1.067s0.4-1.067 1.067-1.067h5.467c0.533 0 1.067 0.4 1.067 1.067s-0.533 1.067-1.067 1.067z"></path>
<path d="M16 28.667c-9.867 0-13.333-3.2-13.333-12.267v0c0-9.2 3.467-12.4 13.333-12.4s13.467 3.2 13.467 12.4c0 9.067-3.6 12.267-13.467 12.267zM4.667 16.4c0 8 2.667 10.4 11.467 10.4s11.467-2.4 11.467-10.4c0-8-2.667-10.4-11.467-10.4s-11.467 2.4-11.467 10.4v0z"></path>
</svg>
