<!-- Generated by IcoMoon.io -->
<svg version="1.1" xmlns="http://www.w3.org/2000/svg" width="32" height="32" viewBox="0 0 32 32">
<path d="M16 4.667c6.249 0 11.333 5.084 11.333 11.333s-5.084 11.333-11.333 11.333c-6.249 0-11.333-5.084-11.333-11.333s5.084-11.333 11.333-11.333zM15.992 15c-0.552 0-1 0.448-1 1v0 5.333c0 0.552 0.448 1 1 1s1-0.448 1-1v0-5.333c0-0.552-0.448-1-1-1zM15.999 9.605c-0.749 0-1.34 0.596-1.34 1.333s0.603 1.333 1.34 1.333c0.737 0 1.333-0.596 1.333-1.333s-0.596-1.333-1.333-1.333v0z"></path>
</svg>
