<!-- Generated by IcoMoon.io -->
<svg version="1.1" xmlns="http://www.w3.org/2000/svg" width="32" height="32" viewBox="0 0 32 32">
<path d="M21.156 23.492c-0.025 0-0.076 0-0.102-0.025l-4.064-1.27c-1.016 0.508-2.133 0.787-3.251 0.787 0 0 0 0 0 0-4.013 0-7.263-3.251-7.263-7.238s3.251-7.238 7.238-7.238 7.238 3.251 7.238 7.238c0 1.092-0.229 2.159-0.711 3.124l1.295 4.114c0.051 0.127 0 0.279-0.102 0.381-0.076 0.076-0.178 0.127-0.279 0.127zM16.94 21.41c0.051 0 0.076 0 0.102 0.025l3.53 1.092-1.117-3.581c-0.025-0.102-0.025-0.203 0.025-0.279 0.483-0.914 0.711-1.879 0.711-2.921 0-3.581-2.895-6.476-6.476-6.476s-6.476 2.895-6.476 6.476 2.895 6.476 6.476 6.476c0 0 0 0 0 0 1.067 0 2.108-0.254 3.048-0.762 0.051-0.025 0.127-0.051 0.178-0.051z"></path>
<path d="M15.644 18.235c-0.102 0-0.203-0.025-0.279-0.102l-1.676-1.676-1.676 1.676c-0.152 0.152-0.381 0.152-0.533 0s-0.152-0.381 0-0.533l1.676-1.676-1.676-1.676c-0.152-0.152-0.152-0.381 0-0.533s0.381-0.152 0.533 0l1.676 1.676 1.676-1.676c0.152-0.152 0.381-0.152 0.533 0s0.152 0.381 0 0.533l-1.676 1.676 1.676 1.676c0.152 0.152 0.152 0.381 0 0.533-0.076 0.051-0.152 0.102-0.254 0.102z"></path>
</svg>
