<!-- Generated by IcoMoon.io -->
<svg version="1.1" xmlns="http://www.w3.org/2000/svg" width="32" height="32" viewBox="0 0 32 32">
<path d="M12.8 28.968c-2.863 0-10.442 0-10.442-5.053s7.747-5.053 10.442-5.053c2.526 0 10.442 0 10.442 5.053s-7.916 5.053-10.442 5.053zM12.8 21.558c-3.537 0-7.916 0.505-7.916 2.526s4.211 2.526 7.916 2.526c3.537 0 7.916-0.505 7.916-2.526 0-2.189-4.379-2.526-7.916-2.526zM26.611 25.6c-0.505 0-1.011-0.337-1.179-0.842-0.168-0.674 0-1.347 0.674-1.684 1.011-0.337 1.011-0.674 1.011-1.011 0-0.674-1.347-1.179-2.358-1.347-0.674-0.168-1.179-0.674-1.011-1.516 0.168-0.674 0.842-1.179 1.516-1.011 3.874 0.505 4.547 2.358 4.547 3.705 0 0.842-0.337 2.358-2.526 3.368-0.505 0.337-0.674 0.337-0.674 0.337zM12.8 17.347c-3.874 0-7.074-3.2-7.074-7.074s3.2-7.074 7.074-7.074c3.874 0 7.074 3.2 7.074 7.074s-3.2 7.074-7.074 7.074c0 0 0 0 0 0zM12.8 5.558c-2.526 0-4.547 2.021-4.547 4.547s2.021 4.547 4.547 4.547v0c2.526 0 4.547-2.021 4.547-4.547s-2.021-4.547-4.547-4.547zM21.895 15.832c-0.674 0-1.179-0.505-1.179-1.011-0.168-0.674 0.337-1.347 1.011-1.347 1.684-0.505 2.695-1.684 2.695-3.368 0-1.516-1.179-2.863-2.695-3.032-0.674-0.168-1.179-0.842-1.011-1.516s0.842-1.179 1.516-1.011c2.863 0.505 4.716 2.863 4.716 5.558 0 2.863-2.021 5.221-4.884 5.558 0 0.168 0 0.168-0.168 0.168z"></path>
</svg>
