<!-- Generated by IcoMoon.io -->
<svg version="1.1" xmlns="http://www.w3.org/2000/svg" width="32" height="32" viewBox="0 0 32 32">
<path d="M23.733 28.933h-15.467c-2.8 0-5.067-2.133-5.333-4.933l-0.267-3.333c0-0.533 0.4-1.067 0.933-1.067s1.067 0.4 1.067 0.933l0.267 3.333c0.133 1.733 1.6 3.067 3.333 3.067h15.467c1.733 0 3.2-1.333 3.333-3.067l0.267-3.333c0-0.533 0.533-0.933 1.067-0.933s0.933 0.533 0.933 1.067l-0.267 3.333c-0.267 2.8-2.533 4.933-5.333 4.933zM16 23.2c-0.533 0-1.067-0.4-1.067-1.067v-2.4c-4.4-0.133-8.533-1.333-11.867-3.2-0.267-0.133-0.4-0.4-0.4-0.8v-4.533c0-2.8 2.267-5.067 5.067-5.067h2.667c0.267-2 1.867-3.467 3.867-3.467h3.467c2 0 3.6 1.467 3.867 3.467h2.667c2.8 0 5.067 2.267 5.067 5.067v4.533c0 0.4-0.133 0.667-0.533 0.8-3.333 1.867-7.467 3.067-11.867 3.2v2.4c0 0.667-0.4 1.067-0.933 1.067zM4.667 15.2c3.2 1.733 7.2 2.667 11.333 2.667s8.133-0.933 11.333-2.667v-4c0-1.733-1.333-3.067-3.067-3.067h-16.533c-1.733 0-3.067 1.333-3.067 3.067v4zM28.267 15.733v0 0zM12.4 6.133h7.2c-0.267-0.8-0.933-1.467-1.867-1.467h-3.467c-0.933 0-1.6 0.667-1.867 1.467z"></path>
</svg>
