<!-- Generated by IcoMoon.io -->
<svg version="1.1" xmlns="http://www.w3.org/2000/svg" width="32" height="32" viewBox="0 0 32 32">
<path d="M16 29.642c-7.579 0-13.642-6.063-13.642-13.642s6.063-13.642 13.642-13.642c7.579 0 13.642 6.063 13.642 13.642s-6.063 13.642-13.642 13.642zM16 4.884c-6.063 0-11.116 4.884-11.116 11.116 0 6.063 4.884 11.116 11.116 11.116 6.063 0 11.116-4.884 11.116-11.116 0-6.063-5.053-11.116-11.116-11.116z"></path>
<path d="M20.547 21.221c-0.168 0-0.505 0-0.674-0.168l-5.053-3.032c-0.337-0.168-0.674-0.674-0.674-1.011v-6.568c0-0.674 0.505-1.347 1.347-1.347s1.347 0.674 1.347 1.347v5.726l4.379 2.695c0.674 0.337 0.842 1.179 0.505 1.684-0.337 0.337-0.674 0.674-1.179 0.674z"></path>
</svg>
