<!-- Generated by IcoMoon.io -->
<svg version="1.1" xmlns="http://www.w3.org/2000/svg" width="32" height="32" viewBox="0 0 32 32">
<path d="M30.51 27.194c-0.323-1.964-1.98-3.375-3.893-3.46 2.182-2.516 3.502-5.8 3.502-9.392 0-7.921-6.422-14.343-14.343-14.343s-14.343 6.422-14.343 14.343 6.422 14.343 14.343 14.343c2.377 0 4.619-0.579 6.593-1.603-0.047 0.235-0.074 0.504-0.074 0.78 0 0.237 0.020 0.47 0.058 0.697l-0.003-0.024c0.37 2.253 2.497 3.779 4.75 3.409s3.779-2.497 3.409-4.75zM15.777 22.441c-4.472 0-8.098-3.626-8.098-8.098s3.626-8.098 8.098-8.098 8.098 3.626 8.098 8.098-3.626 8.098-8.098 8.098z"></path>
</svg>
