<!-- Generated by IcoMoon.io -->
<svg version="1.1" xmlns="http://www.w3.org/2000/svg" width="32" height="32" viewBox="0 0 32 32">
<path d="M16 30.4v0c-1.467 0-2.933-0.667-4-1.867-0.4-0.4-0.4-1.067 0.133-1.467 0.4-0.4 1.067-0.4 1.467 0.133 0.667 0.8 1.6 1.2 2.533 1.2 0 0 0 0 0 0 0.933 0 1.867-0.4 2.533-1.2 0.4-0.4 1.067-0.4 1.467-0.133 0.4 0.4 0.4 1.067 0.133 1.467-1.467 1.2-2.8 1.867-4.267 1.867zM16 24.8c-6.267 0-11.867-0.4-12.267-5.733 0-2.133 0.667-3.333 1.2-4.267s1.2-2 1.2-4.133c0-4.267 4-8.933 9.867-8.933s9.867 4.667 9.867 8.933c0 2.267 0.533 3.2 1.2 4.133 0.533 0.933 1.2 2.133 1.2 4.267-0.4 5.333-6 5.733-12.267 5.733zM16 3.733c-4.667 0-7.867 3.6-7.867 6.933 0 2.8-0.8 4-1.467 5.2-0.533 0.933-0.933 1.6-0.933 3.2 0.267 2.533 1.867 3.867 10.4 3.867 8.4 0 10.133-1.333 10.4-3.867 0-1.467-0.4-2.133-0.933-3.067-0.667-1.067-1.467-2.4-1.467-5.2-0.267-3.467-3.467-7.067-8.133-7.067z"></path>
</svg>
