<!-- Generated by IcoMoon.io -->
<svg version="1.1" xmlns="http://www.w3.org/2000/svg" width="32" height="32" viewBox="0 0 32 32">
<path d="M11.067 31.333c-0.533 0-1.067-0.4-1.067-1.067v-28c0.133-0.533 0.533-0.933 1.067-0.933s1.067 0.4 1.067 1.067v28c0 0.4-0.533 0.933-1.067 0.933z"></path>
<path d="M4 16.8l6.267 5.2v-10.4l-6.267 5.2zM27.333 16.8l-6.267 5.2v-10.4l6.267 5.2z"></path>
<path d="M20.4 31.333c-0.533 0-1.067-0.4-1.067-1.067v-28c0-0.533 0.4-1.067 1.067-1.067s1.067 0.4 1.067 1.067v28c0 0.533-0.533 1.067-1.067 1.067z"></path>
</svg>
