<!-- Generated by IcoMoon.io -->
<svg version="1.1" xmlns="http://www.w3.org/2000/svg" width="32" height="32" viewBox="0 0 32 32">
<path d="M18.289 20.388c0.002 0 0.003 0 0.005 0 1.601 0 2.899 1.294 2.907 2.893v4.101c0 0.343 0.275 0.617 0.627 0.627h2.541c2.003 0 3.631-1.609 3.631-3.585v-11.632c-0.009-0.68-0.333-1.32-0.889-1.745l-8.791-7.011c-0.545-0.437-1.244-0.701-2.006-0.701-0.763 0-1.463 0.265-2.015 0.708l0.006-0.005-8.732 7.005c-0.546 0.406-0.898 1.046-0.907 1.769v11.611c0 1.976 1.627 3.584 3.631 3.584h2.565c0.002 0 0.004 0 0.005 0 0.355 0 0.643-0.285 0.648-0.638v-0c0-0.077 0.011-0.155 0.027-0.227v-3.861c0-1.585 1.299-2.88 2.892-2.892h3.853zM24.369 30.007h-2.565c-1.469-0.035-2.603-1.187-2.603-2.625v-4.101c-0.006-0.494-0.408-0.892-0.903-0.892-0.003 0-0.007 0-0.010 0h-3.849c-0.494 0.002-0.893 0.4-0.899 0.893v4.087c0 0.1-0.013 0.196-0.041 0.287-0.156 1.33-1.277 2.352-2.636 2.352-0.001 0-0.003 0-0.004 0h-2.561c-3.108 0-5.632-2.505-5.632-5.584v-11.619c0.008-1.36 0.661-2.567 1.668-3.33l0.011-0.008 8.713-6.993c0.884-0.71 2.019-1.14 3.255-1.14 1.234 0 2.369 0.429 3.262 1.146l-0.010-0.008 8.776 7c1.002 0.769 1.645 1.961 1.659 3.304l0 0.002v11.645c0 3.080-2.525 5.584-5.631 5.584z"></path>
</svg>
