<svg width="24" height="24" viewBox="0 0 24 24" xmlns="http://www.w3.org/2000/svg">
    <path d="M8.956 4.96c.49-.092.982.152 1.195.595.054.08.096.167.127.257.136 2.097.281 4.159.417 6.22-.003.214.03.427.1.63.162.4.566.655 1.005.632l6.656-.427.045.018.122.009c.24.03.465.14.635.313.199.202.307.472.303.753-.263 3.822-3.065 7.016-6.878 7.838-3.814.823-7.723-.923-9.595-4.284a8.215 8.215 0 0 1-1.024-3.136 5.956 5.956 0 0 1-.063-.987C2.014 9.327 4.907 5.82 8.956 4.96zM12.914 2c4.57.138 8.39 3.456 9.083 7.89a.244.244 0 0 1 0 .08l-.002.126a.783.783 0 0 1-.195.45.812.812 0 0 1-.555.269l-7.68.506-.126.003a.915.915 0 0 1-.567-.233.88.88 0 0 1-.294-.658l-.516-7.544v-.124a.793.793 0 0 1 .264-.555.824.824 0 0 1 .588-.21z"
          fill="#41C9CA" fill-rule="nonzero"/>
</svg>
