<!-- Generated by IcoMoon.io -->
<svg version="1.1" xmlns="http://www.w3.org/2000/svg" width="32" height="32" viewBox="0 0 32 32">
<path d="M22.227 2.667c4.533 0 7.093 2.573 7.107 7.107v12.453c0 4.533-2.573 7.107-7.107 7.107h-12.453c-4.533 0-7.107-2.573-7.107-7.107v-12.453c0-4.533 2.573-7.107 7.107-7.107zM16.667 8.173c-0.168-0.106-0.372-0.169-0.591-0.169-0.619 0-1.12 0.501-1.12 1.12 0 0.036 0.002 0.072 0.005 0.107l-0-0.004v13.587c0.067 0.573 0.547 1 1.107 1 0.573 0 1.053-0.427 1.107-1v-13.587c0.005-0.039 0.008-0.084 0.008-0.13 0-0.388-0.204-0.729-0.51-0.921l-0.005-0.003zM10.44 12.547c-0.166-0.107-0.369-0.17-0.587-0.17s-0.42 0.063-0.591 0.173l0.004-0.003c-0.317 0.201-0.525 0.551-0.525 0.949 0 0.037 0.002 0.073 0.005 0.109l-0-0.005v9.213c0.053 0.573 0.533 1 1.107 1s1.053-0.427 1.107-1v-9.213c0.003-0.031 0.005-0.067 0.005-0.103 0-0.398-0.207-0.748-0.52-0.947l-0.005-0.003zM22.787 17.387c-0.168-0.107-0.373-0.17-0.593-0.17s-0.425 0.063-0.598 0.173l0.005-0.003c-0.311 0.192-0.515 0.531-0.515 0.918 0 0.048 0.003 0.095 0.009 0.141l-0.001-0.005v4.373c0.053 0.573 0.533 1 1.107 1 0.56 0 1.040-0.427 1.107-1v-4.373c0.003-0.033 0.005-0.070 0.005-0.109 0-0.397-0.208-0.745-0.521-0.942l-0.005-0.003z"></path>
</svg>
