<!-- Generated by IcoMoon.io -->
<svg version="1.1" xmlns="http://www.w3.org/2000/svg" width="32" height="32" viewBox="0 0 32 32">
<path d="M20.599 5.040c-0.053 0.334-0.080 0.667-0.080 1.001 0 0.002 0 0.003 0 0.005 0 2.991 2.423 5.416 5.413 5.419h0c0.334 0 0.654-0.037 0.987-0.091v10.757c0 4.523-2.667 7.202-7.2 7.202h-9.851c-4.535 0-7.202-2.679-7.202-7.2v-9.867c0-4.533 2.667-7.227 7.2-7.227zM20.868 13.147c-0.032-0.004-0.070-0.006-0.108-0.006-0.338 0-0.638 0.164-0.825 0.417l-0.002 0.003-3.225 4.172-3.694-2.907c-0.176-0.137-0.4-0.22-0.644-0.22-0.041 0-0.082 0.002-0.122 0.007l0.005-0c-0.274 0.043-0.507 0.189-0.665 0.396l-0.002 0.003-3.945 5.136-0.082 0.119c-0.074 0.136-0.118 0.298-0.118 0.47 0 0.325 0.156 0.614 0.397 0.795l0.003 0.002c0.172 0.12 0.383 0.194 0.612 0.199l0.001 0c0.004 0 0.009 0 0.013 0 0.318 0 0.599-0.157 0.771-0.397l0.002-0.003 3.348-4.308 3.799 2.855 0.121 0.078c0.427 0.226 0.96 0.121 1.266-0.281l3.854-4.971-0.053 0.027c0.122-0.164 0.195-0.37 0.195-0.593 0-0.517-0.393-0.943-0.897-0.994l-0.004-0zM26.119 2.667c1.742 0.042 3.139 1.465 3.139 3.213s-1.396 3.171-3.135 3.213l-0.004 0c-1.742-0.042-3.139-1.465-3.139-3.213s1.396-3.171 3.135-3.213l0.004-0z"></path>
</svg>
