<svg width="19" height="19" viewBox="0 0 19 19" xmlns="http://www.w3.org/2000/svg">
    <g stroke="#939B9D" stroke-width="1.5" fill="none" fill-rule="evenodd" stroke-linecap="round"
       stroke-linejoin="round">
        <path d="M7.593 12.039c2.92 0 5.417.442 5.417 2.21s-2.48 2.223-5.417 2.223c-2.921 0-5.416-.439-5.416-2.207 0-1.769 2.478-2.226 5.416-2.226zM7.593 9.516a3.472 3.472 0 1 1 3.472-3.472 3.46 3.46 0 0 1-3.447 3.472h-.025zM13.05 8.615a2.613 2.613 0 0 0 2.245-2.583 2.613 2.613 0 0 0-2.187-2.577M14.721 11.663c1.228.183 2.086.614 2.086 1.5 0 .61-.404 1.006-1.056 1.254"/>
    </g>
</svg>
