<!-- Generated by IcoMoon.io -->
<svg version="1.1" xmlns="http://www.w3.org/2000/svg" width="32" height="32" viewBox="0 0 32 32">
<path d="M6.8 26.933c-0.4 0-0.667-0.133-0.933-0.4-0.533-0.533-0.533-1.333 0-1.867l8.533-8.533-8.533-8.4c-0.533-0.533-0.533-1.333 0-1.867s1.333-0.533 1.867 0l8.533 8.533 8.533-8.533c0.533-0.533 1.333-0.533 1.867 0s0.533 1.333 0 1.867l-8.533 8.533 8.533 8.533c0.533 0.533 0.533 1.333 0 1.867s-1.333 0.533-1.867 0l-8.533-8.533-8.533 8.533c-0.267 0.133-0.667 0.267-0.933 0.267z"></path>
</svg>
