<svg width="20" height="20" viewBox="0 0 20 20" xmlns="http://www.w3.org/2000/svg">
    <g fill="none" fill-rule="evenodd">
        <path d="M0 0h20v20H0z"/>
        <path d="M9.433 5.778c3.11 0 5.622 2.489 5.622 5.555 0 3.073-2.513 5.556-5.622 5.556-3.103 0-5.622-2.483-5.622-5.556 0-3.066 2.519-5.555 5.622-5.555zm-.197 2.739a.419.419 0 0 0-.421.416v2.806c0 .144.078.278.208.356l2.204 1.3a.418.418 0 1 0 .433-.717L9.658 11.5V8.933a.419.419 0 0 0-.422-.416z"
              fill="#FFF" fill-rule="nonzero"/>
        <g opacity=".544">
            <path d="M17.866 11.333C17.866 6.731 14.091 3 9.433 3 4.776 3 1 6.731 1 11.333" stroke="#FFF"
                  stroke-width=".84" stroke-linecap="round" stroke-linejoin="round"/>
            <path d="m17.722 11.89-1.44-1.431a.28.28 0 0 1 .17-.477l2.633-.256a.28.28 0 0 1 .256.44l-1.192 1.688a.28.28 0 0 1-.427.036z"
                  fill="#FFF"/>
        </g>
    </g>
</svg>
