<!-- Generated by IcoMoon.io -->
<svg version="1.1" xmlns="http://www.w3.org/2000/svg" width="32" height="32" viewBox="0 0 32 32">
<path d="M12.466 19.81c5.314 0 9.799 0.844 9.799 4.11 0 3.264-4.516 4.080-9.799 4.080-5.314 0-9.799-0.844-9.799-4.11 0-3.262 4.516-4.080 9.799-4.080zM20.759 17.844c2.021-0.037 4.196 0.235 4.996 0.427 1.703 0.325 2.821 0.988 3.284 1.956 0.393 0.793 0.393 1.712 0 2.505-0.708 1.497-2.994 1.979-3.883 2.103-0.011 0.002-0.025 0.003-0.038 0.003-0.152 0-0.276-0.123-0.276-0.276 0-0.013 0.001-0.025 0.003-0.038l-0 0.001c0.453-4.151-3.156-6.117-4.089-6.571-0.041-0.021-0.050-0.053-0.046-0.071 0.004-0.014 0.020-0.036 0.050-0.039zM12.466 16.7c3.6 0 6.484-2.827 6.484-6.35 0-3.525-2.884-6.35-6.484-6.35-3.598 0-6.484 2.825-6.484 6.35s2.885 6.35 6.484 6.35zM21.564 10.466c0 1.796-0.551 3.468-1.516 4.86-0.1 0.142-0.011 0.338 0.164 0.366 0.244 0.041 0.492 0.064 0.747 0.071 2.532 0.064 4.802-1.532 5.429-3.936 0.93-3.564-1.799-6.766-5.276-6.766-0.002 0-0.005 0-0.007 0-0.383 0-0.757 0.039-1.118 0.113l0.036-0.006c-0.048 0.011-0.101 0.036-0.126 0.075-0.036 0.053-0.009 0.121 0.025 0.165 1.027 1.394 1.644 3.146 1.644 5.042 0 0.006 0 0.011-0 0.017v-0.001z"></path>
</svg>
