<!-- Generated by IcoMoon.io -->
<svg version="1.1" xmlns="http://www.w3.org/2000/svg" width="32" height="32" viewBox="0 0 32 32">
<path d="M2.909 30.255c-0.436 0-0.727-0.145-1.018-0.436-0.291-0.436-0.436-0.873-0.291-1.455l1.6-5.236c0-0.291 0.145-0.436 0.436-0.582l11.345-11.491-0.727-0.582c-0.582-0.582-0.582-1.455 0-2.036s1.455-0.582 2.036 0l7.273 7.127c0.582 0.582 0.582 1.455 0 2.036s-1.455 0.582-2.036 0l-0.582-0.582-11.345 11.491c-0.145 0.145-0.436 0.291-0.727 0.436l-5.527 1.455c-0.145-0.145-0.291-0.145-0.436-0.145zM5.818 24.291l-0.727 2.473 2.618-0.582 11.055-11.2-1.891-1.891-11.055 11.2z"></path>
<path d="M16.291 10.182l5.382 5.818c4.073-4.073 6.691-6.836 7.709-8 1.309-1.455 0.873-3.927-0.291-5.382-1.309-1.455-4.073-1.164-5.382 0-1.164 1.164-3.636 3.636-7.418 7.564z"></path>
</svg>
