<!-- Generated by IcoMoon.io -->
<svg version="1.1" xmlns="http://www.w3.org/2000/svg" width="32" height="32" viewBox="0 0 32 32">
<path d="M26.933 29.333h-21.867c-2 0-3.733-1.733-3.733-3.733v-8.133c0-2 1.733-3.733 3.733-3.733h21.867c2 0 3.733 1.733 3.733 3.733v8.133c0 2-1.733 3.733-3.733 3.733zM5.067 15.867c-0.933 0-1.6 0.667-1.6 1.6v8.133c0 0.933 0.667 1.6 1.6 1.6h21.867c0.933 0 1.6-0.667 1.6-1.6v-8.133c0-0.933-0.667-1.6-1.6-1.6h-21.867z"></path>
<path d="M6.267 9.2h19.6zM9.467 3.467h13.067z"></path>
<path d="M25.867 10.267h-19.6v-2.133h19.6v2.133zM22.533 4.533h-13.067v-2.133h13.067v2.133z"></path>
</svg>
