<svg width="18" height="18" viewBox="0 0 18 18" xmlns="http://www.w3.org/2000/svg">
    <g stroke="#939B9D" stroke-width="1.5" fill="none" fill-rule="evenodd" stroke-linecap="round"
       stroke-linejoin="round">
        <path d="M14.494 7.101s-.408 5.051-.644 7.18c-.112 1.015-.74 1.61-1.768 1.63-1.957.035-3.916.037-5.872-.004-.99-.02-1.607-.623-1.717-1.622-.238-2.146-.643-7.184-.643-7.184M15.531 4.68H2.813M13.08 4.68a1.236 1.236 0 0 1-1.21-.993l-.183-.912a.96.96 0 0 0-.928-.712H7.584a.96.96 0 0 0-.927.712l-.183.912a1.236 1.236 0 0 1-1.21.993"/>
    </g>
</svg>
