<!-- Generated by IcoMoon.io -->
<svg version="1.1" xmlns="http://www.w3.org/2000/svg" width="32" height="32" viewBox="0 0 32 32">
<path d="M16 4.667c6.249 0 11.334 5.083 11.334 11.333s-5.085 11.334-11.334 11.334c-6.249 0-11.334-5.085-11.334-11.334s5.085-11.334 11.334-11.334zM21.608 12.454c-0.181-0.181-0.431-0.294-0.707-0.294s-0.526 0.112-0.707 0.294l-4.491 4.489-1.813-1.818c-0.181-0.181-0.432-0.294-0.709-0.294-0.553 0-1.002 0.448-1.002 1.002 0 0.276 0.112 0.527 0.293 0.708l2.522 2.525c0.189 0.187 0.442 0.294 0.709 0.294l0.157-0.014c0.216-0.035 0.405-0.136 0.549-0.28l5.199-5.199c0.181-0.181 0.293-0.431 0.293-0.707s-0.112-0.526-0.293-0.707v0z"></path>
</svg>
