<!-- Generated by IcoMoon.io -->
<svg version="1.1" xmlns="http://www.w3.org/2000/svg" width="32" height="32" viewBox="0 0 32 32">
<path d="M16 20.308c-2.338 0-4.308-1.969-4.308-4.308s1.969-4.308 4.308-4.308c2.338 0 4.308 1.969 4.308 4.308s-1.969 4.308-4.308 4.308zM16 13.538c-1.354 0-2.462 1.108-2.462 2.462s1.108 2.462 2.462 2.462c1.354 0 2.462-1.108 2.462-2.462s-1.108-2.462-2.462-2.462z"></path>
<path d="M16 29.538c-2.338 0-4.185-1.846-4.185-4.308 0-0.369-0.246-0.738-0.615-0.985-0.123-0.123-0.615-0.246-1.108 0-2.092 1.108-4.677 0.492-5.785-1.6-1.108-1.969-0.492-4.677 1.6-5.785 0.492-0.246 0.615-0.738 0.615-0.985s0-0.738-0.615-0.985c-1.969-1.231-2.708-3.815-1.6-5.785 0.615-0.862 1.477-1.6 2.585-1.846s2.215-0.123 3.2 0.369c0.492 0.246 0.985 0.123 1.108 0 0.369-0.246 0.615-0.615 0.615-0.985 0-1.108 0.492-2.215 1.231-2.954s1.846-1.231 2.954-1.231c2.338 0 4.185 1.846 4.185 4.308 0 0.369 0.246 0.738 0.615 0.985 0.123 0.123 0.615 0.246 1.108 0 0.985-0.615 2.092-0.738 3.2-0.369 1.108 0.246 1.969 0.985 2.585 1.969 1.108 1.969 0.492 4.677-1.6 5.785-0.492 0.246-0.615 0.738-0.615 0.985s0 0.738 0.615 0.985c1.969 1.231 2.708 3.815 1.6 5.785-0.615 0.985-1.477 1.723-2.585 1.969s-2.215 0.123-3.2-0.369c-0.492-0.246-0.985-0.123-1.108 0-0.369 0.246-0.615 0.615-0.615 0.985 0 2.215-1.846 4.062-4.185 4.062zM10.708 22.4c0.492 0 0.985 0.123 1.477 0.369 0.985 0.492 1.477 1.477 1.477 2.585 0 1.354 1.108 2.462 2.338 2.462 1.354 0 2.338-1.108 2.338-2.338 0-1.108 0.615-2.092 1.477-2.585 0.985-0.492 2.092-0.492 2.954 0 0.492 0.369 1.231 0.369 1.846 0.246s1.108-0.492 1.477-1.108c0.615-1.108 0.246-2.585-0.862-3.323-0.985-0.492-1.477-1.477-1.477-2.585s0.615-2.092 1.477-2.585c1.108-0.615 1.477-2.092 0.862-3.323 0 0 0 0 0 0-0.369-0.492-0.862-0.985-1.477-1.108s-1.231-0.123-1.846 0.246c-0.985 0.492-2.092 0.492-2.954 0-0.985-0.492-1.477-1.477-1.477-2.585 0-1.354-1.108-2.462-2.338-2.462-1.354 0-2.338 1.108-2.338 2.338 0 1.108-0.615 2.092-1.477 2.585-0.985 0.615-2.092 0.615-3.077 0-0.492-0.246-1.108-0.369-1.723-0.246-0.615 0.246-1.108 0.615-1.477 1.108-0.615 1.108-0.246 2.585 0.862 3.323 0.985 0.492 1.477 1.477 1.477 2.585s-0.615 2.092-1.477 2.585c-1.108 0.615-1.477 2.092-0.862 3.323 0.615 1.108 2.092 1.477 3.2 0.862 0.492-0.246 0.985-0.369 1.6-0.369z"></path>
</svg>
