<!-- Generated by IcoMoon.io -->
<svg version="1.1" xmlns="http://www.w3.org/2000/svg" width="32" height="32" viewBox="0 0 32 32">
<path fill="#5f6368" d="M14.667 5.333v-4h2.667v4h-2.667zM14.667 30.667v-4h2.667v4h-2.667zM26.667 17.333v-2.667h4v2.667h-4zM1.333 17.333v-2.667h4v2.667h-4zM24.933 8.933l-1.867-1.867 2.333-2.4 1.933 1.933-2.4 2.333zM6.6 27.333l-1.933-1.933 2.4-2.333 1.867 1.867-2.333 2.4zM25.4 27.333l-2.333-2.4 1.867-1.867 2.4 2.333-1.933 1.933zM7.067 8.933l-2.4-2.333 1.933-1.933 2.333 2.4-1.867 1.867zM16 24q-3.333 0-5.667-2.333t-2.333-5.667 2.333-5.667 5.667-2.333 5.667 2.333 2.333 5.667-2.333 5.667-5.667 2.333zM16 21.333q2.233 0 3.783-1.55t1.55-3.783-1.55-3.783-3.783-1.55-3.783 1.55-1.55 3.783 1.55 3.783 3.783 1.55z"></path>
</svg>
