<svg width="26" height="26" viewBox="0 0 26 26" xmlns="http://www.w3.org/2000/svg">
    <g stroke="#41C9CA" stroke-width="1.5" fill="none" fill-rule="evenodd" stroke-linecap="round"
       stroke-linejoin="round">
        <path d="M13 10.292a2.708 2.708 0 1 1 0 5.416 2.708 2.708 0 0 1 0-5.416z"/>
        <path d="M21.849 7.854h0a2.669 2.669 0 0 0-3.661-.987c-1.115.647-2.508-.163-2.508-1.459 0-1.49-1.2-2.7-2.68-2.7h0a2.69 2.69 0 0 0-2.68 2.7c0 1.296-1.394 2.106-2.507 1.459a2.67 2.67 0 0 0-3.662.987 2.71 2.71 0 0 0 .982 3.688c1.113.648 1.113 2.268 0 2.916a2.71 2.71 0 0 0-.982 3.688 2.67 2.67 0 0 0 3.66.988h.002c1.113-.648 2.506.162 2.506 1.458h0c0 1.49 1.2 2.7 2.68 2.7h0a2.69 2.69 0 0 0 2.681-2.7h0c0-1.296 1.393-2.106 2.508-1.458a2.67 2.67 0 0 0 3.66-.988 2.71 2.71 0 0 0-.98-3.688h-.001c-1.113-.648-1.113-2.268.001-2.916a2.71 2.71 0 0 0 .98-3.688z"/>
    </g>
</svg>
