<!-- Generated by IcoMoon.io -->
<svg version="1.1" xmlns="http://www.w3.org/2000/svg" width="32" height="32" viewBox="0 0 32 32">
<path d="M14.187 24.533c-0.96 0-1.92-0.427-2.56-1.173l-3.84-4.053c-1.067-1.173-1.28-2.987-0.32-4.373 3.2-4.8 5.867-8 8.107-9.707 3.84-2.773 12.053-4.693 13.867-3.627 0.32 0.213 0.64 0.64 0.747 1.173 0.533 2.347-1.6 8.747-3.947 12.16-1.707 2.347-4.907 5.333-9.92 8.853-0.64 0.533-1.387 0.747-2.133 0.747zM27.947 2.773c-2.24 0-8.213 1.387-11.413 3.627-2.133 1.493-4.8 4.693-7.787 9.28v0c-0.533 0.853-0.427 1.92 0.213 2.667l3.84 4.053c0.747 0.747 1.92 0.853 2.773 0.32 4.8-3.413 8.107-6.293 9.6-8.533 2.773-3.947 4.267-10.56 3.627-11.307-0.213 0-0.533-0.107-0.853-0.107z"></path>
<path d="M20.267 14.187c-1.813 0-3.2-1.387-3.2-3.2s1.387-3.2 3.2-3.2 3.2 1.387 3.2 3.2-1.387 3.2-3.2 3.2zM20.267 9.28c-0.96 0-1.813 0.747-1.813 1.813s0.853 1.707 1.813 1.707 1.813-0.747 1.813-1.813-0.853-1.707-1.813-1.707z"></path>
<path d="M16.96 22.187l-8-8.213 1.067-0.96 8 8.213-1.067 0.96zM8.107 15.68l-3.84-0.32c-1.92-0.213-2.987-0.32-3.307-1.067-0.107-0.213-0.213-0.64 0.213-1.173 0.64-0.853 3.84-4.907 8-6.933 1.28-0.64 2.987-0.64 5.333 0l-0.32 1.387c-2.027-0.533-3.52-0.533-4.48-0.107-3.52 1.707-6.293 5.013-7.253 6.187 0.533 0.107 1.493 0.213 1.92 0.213l3.84 0.32-0.107 1.493z"></path>
<path d="M18.027 30.080c-0.107 0-0.213 0-0.32-0.107-0.747-0.32-0.96-1.387-1.28-3.2l-0.64-3.84 1.387-0.213 0.64 3.84c0.107 0.427 0.213 1.387 0.427 1.92 1.173-1.067 4.267-4.053 5.653-7.68 0.427-0.96 0.213-2.453-0.32-4.373l1.387-0.427c0.747 2.347 0.853 4.053 0.32 5.333-1.707 4.267-5.547 7.787-6.293 8.427-0.427 0.213-0.747 0.32-0.96 0.32z"></path>
<path d="M1.707 29.973c-0.213 0-0.32-0.107-0.533-0.213-0.32-0.32-0.32-0.747 0-0.96l6.827-6.72c0.32-0.32 0.747-0.32 0.96 0 0.32 0.32 0.32 0.747 0 0.96l-6.827 6.72c0 0.213-0.213 0.213-0.427 0.213zM8.32 29.227c-0.213 0-0.32-0.107-0.533-0.213-0.32-0.32-0.32-0.747 0-0.96l3.093-3.093c0.32-0.32 0.747-0.32 0.96 0 0.32 0.32 0.32 0.747 0 0.96l-3.093 3.093c-0.107 0.107-0.213 0.213-0.427 0.213zM2.56 23.467c-0.107 0-0.32 0-0.427-0.213-0.32-0.32-0.32-0.747 0-0.96l3.093-3.093c0.32-0.32 0.747-0.32 0.96 0s0.32 0.747 0 0.96l-3.093 3.093c-0.107 0.213-0.32 0.213-0.533 0.213z"></path>
</svg>
