<!-- Generated by IcoMoon.io -->
<svg version="1.1" xmlns="http://www.w3.org/2000/svg" width="32" height="32" viewBox="0 0 32 32">
<path d="M11.055 29.236c-4.218 0-7.127-2.909-7.127-7.273v-12.218c0-4.364 2.764-7.273 6.982-7.273h10.327c4.218 0 7.127 2.909 7.127 7.273v12.218c0 4.364-2.764 7.273-6.982 7.273h-10.327zM21.236 4.8h-10.182c-3.055 0-4.8 1.891-4.8 5.091v12.218c0 3.2 1.891 5.091 4.945 5.091h10.182c3.055 0 4.8-1.891 4.8-5.091v-12.364c0-3.055-1.891-4.945-4.945-4.945v0zM20.945 22.691h-9.6c-0.582 0-1.164-0.436-1.164-1.164s0.436-1.164 1.164-1.164h9.6c0.582 0 1.164 0.436 1.164 1.164s-0.582 1.164-1.164 1.164zM20.945 17.164h-9.6c-0.582 0-1.164-0.582-1.164-1.164s0.436-1.164 1.164-1.164h9.6c0.582 0 1.164 0.436 1.164 1.164s-0.582 1.164-1.164 1.164zM14.982 11.636h-3.636c-0.582 0-1.164-0.582-1.164-1.164s0.436-1.164 1.164-1.164h3.636c0.582 0 1.164 0.436 1.164 1.164s-0.582 1.164-1.164 1.164z"></path>
</svg>
