<!-- Generated by IcoMoon.io -->
<svg version="1.1" xmlns="http://www.w3.org/2000/svg" width="32" height="32" viewBox="0 0 32 32">
<path d="M15.757 28.703c-7.273 0-13.091-5.818-13.091-13.091s5.818-13.091 13.091-13.091 13.091 5.818 13.091 13.091-5.964 13.091-13.091 13.091zM15.757 4.848c-6.109 0-10.909 4.8-10.909 10.909 0 5.964 4.945 10.909 10.909 10.909s10.909-4.945 10.909-10.909c-0.145-6.109-4.945-10.909-10.909-10.909z"></path>
<path d="M28.703 30.448c-0.291 0-0.582-0.145-0.727-0.291l-4.655-4.655c-0.436-0.436-0.436-1.164 0-1.6s1.164-0.436 1.6 0l4.655 4.655c0.436 0.436 0.436 1.164 0 1.6-0.291 0.145-0.582 0.291-0.873 0.291z"></path>
</svg>
