<!-- Generated by IcoMoon.io -->
<svg version="1.1" xmlns="http://www.w3.org/2000/svg" width="32" height="32" viewBox="0 0 32 32">
<path d="M11.941 6.613c0.653-0.123 1.309 0.203 1.593 0.793 0.072 0.107 0.128 0.223 0.169 0.343 0.181 2.796 0.375 5.545 0.556 8.293-0.004 0.285 0.040 0.569 0.133 0.84 0.216 0.533 0.755 0.873 1.34 0.843l8.875-0.569 0.060 0.024 0.163 0.012c0.32 0.040 0.62 0.187 0.847 0.417 0.265 0.269 0.409 0.629 0.404 1.004-0.351 5.096-4.087 9.355-9.171 10.451-5.085 1.097-10.297-1.231-12.793-5.712-0.699-1.205-1.183-2.62-1.36-4.13l-0.005-0.051c-0.054-0.349-0.086-0.752-0.086-1.162 0-0.054 0.001-0.108 0.002-0.162l-0 0.008c0.017-5.419 3.875-10.095 9.273-11.241zM17.219 2.667c6.093 0.184 11.187 4.608 12.111 10.52 0.003 0.016 0.004 0.034 0.004 0.053s-0.002 0.037-0.005 0.055l0-0.002-0.003 0.168c-0.022 0.232-0.116 0.439-0.261 0.601l0.001-0.001c-0.185 0.206-0.445 0.34-0.737 0.358l-0.003 0-10.408 0.679c-0.292-0.015-0.555-0.13-0.757-0.312l0.001 0.001c-0.241-0.216-0.392-0.528-0.392-0.875 0-0.001 0-0.001 0-0.002v0l-0.688-10.059v-0.165c0.014-0.295 0.147-0.556 0.351-0.739l0.001-0.001c0.194-0.174 0.451-0.281 0.734-0.281 0.018 0 0.035 0 0.052 0.001l-0.002-0z"></path>
</svg>
