<!-- Generated by IcoMoon.io -->
<svg version="1.1" xmlns="http://www.w3.org/2000/svg" width="32" height="32" viewBox="0 0 32 32">
<path d="M22.267 30.4h-12.533c-4.8 0-8.133-3.333-8.133-8.4v-11.867c0-5.067 3.2-8.4 8.133-8.4h12.533c4.8 0 8.133 3.333 8.133 8.4v11.733c0 5.067-3.333 8.533-8.133 8.533zM9.733 3.733c-3.733 0-6.133 2.533-6.133 6.4v11.733c0 3.867 2.4 6.4 6.133 6.4h12.533c3.733 0 6.133-2.533 6.133-6.4v-11.733c0-3.867-2.4-6.4-6.133-6.4h-12.533zM22.133 23.733c-0.533 0-1.067-0.4-1.067-1.067v-4.267c0-0.533 0.4-1.067 1.067-1.067s1.067 0.4 1.067 1.067v4.267c0 0.667-0.533 1.067-1.067 1.067zM16 23.733c-0.533 0-1.067-0.4-1.067-1.067v-13.467c0-0.533 0.4-1.067 1.067-1.067s1.067 0.4 1.067 1.067v13.467c0 0.667-0.4 1.067-1.067 1.067zM9.867 23.733c-0.533 0-1.067-0.4-1.067-1.067v-9.2c0-0.533 0.4-1.067 1.067-1.067s1.067 0.4 1.067 1.067v9.2c-0.133 0.667-0.533 1.067-1.067 1.067z"></path>
</svg>
