<!-- Generated by IcoMoon.io -->
<svg version="1.1" xmlns="http://www.w3.org/2000/svg" width="32" height="32" viewBox="0 0 32 32">
<path d="M21.6 30.56h-11.2c-4.64 0-7.52-2.88-7.52-7.52v-12c0-4.32 2.56-7.040 6.56-7.36v-0.96c0-0.64 0.48-1.28 1.28-1.28s1.28 0.48 1.28 1.28v0.96h8.32v-0.96c0-0.64 0.48-1.28 1.28-1.28s1.28 0.48 1.28 1.28v0.96c1.92 0.16 3.52 0.8 4.64 1.92 1.28 1.28 1.92 3.2 1.92 5.44v12.16c-0.32 4.48-3.2 7.36-7.84 7.36zM5.12 13.76v9.28c0 3.36 1.76 5.12 5.12 5.12h11.2c2.4 0 5.12-0.8 5.12-4.96v-9.44h-21.44zM5.12 11.36h21.6v-0.32c0-1.6-0.48-2.88-1.28-3.68-0.64-0.64-1.76-1.12-2.88-1.28v0.96c0 0.64-0.48 1.28-1.28 1.28s-1.28-0.48-1.28-1.28v-1.12h-8.16v1.12c0 0.64-0.48 1.28-1.28 1.28s-1.12-0.64-1.12-1.28v-0.96c-2.080 0.16-4.32 1.28-4.32 4.96v0.32zM21.92 24.16c-0.64 0-1.28-0.48-1.28-1.28s0.48-1.28 1.12-1.28v0c0.64 0 1.28 0.48 1.28 1.28s-0.48 1.28-1.12 1.28zM16 24.16c-0.64 0-1.28-0.48-1.28-1.28s0.48-1.28 1.12-1.28v0c0.64 0 1.28 0.48 1.28 1.28s-0.48 1.28-1.12 1.28zM10.080 24.16c-0.64 0-1.28-0.48-1.28-1.28s0.48-1.28 1.12-1.28v0c0.64 0 1.28 0.48 1.28 1.28s-0.48 1.28-1.12 1.28zM21.92 18.88c-0.64 0-1.28-0.48-1.28-1.28s0.48-1.28 1.12-1.28v0c0.64 0 1.28 0.48 1.28 1.28s-0.48 1.28-1.12 1.28zM16 18.88c-0.64 0-1.28-0.48-1.28-1.28s0.48-1.28 1.12-1.28v0c0.64 0 1.28 0.48 1.28 1.28s-0.48 1.28-1.12 1.28zM10.080 18.88c-0.64 0-1.28-0.48-1.28-1.28s0.48-1.28 1.12-1.28v0c0.64 0 1.28 0.48 1.28 1.28s-0.48 1.28-1.12 1.28z"></path>
</svg>
