<!-- Generated by IcoMoon.io -->
<svg version="1.1" xmlns="http://www.w3.org/2000/svg" width="32" height="32" viewBox="0 0 32 32">
<path d="M23.892 19.093c-0.276 0.267-0.447 0.64-0.447 1.054 0 0.085 0.007 0.168 0.021 0.249l-0.001-0.009 1.186 6.56c0.014 0.077 0.023 0.165 0.023 0.255 0 0.489-0.244 0.922-0.617 1.182l-0.005 0.003c-0.239 0.176-0.54 0.282-0.865 0.282-0.255 0-0.494-0.065-0.703-0.179l0.008 0.004-5.904-3.081c-0.193-0.104-0.422-0.168-0.665-0.174l-0.002-0h-0.364c-0.134 0.020-0.255 0.062-0.365 0.122l0.006-0.003-5.908 3.095c-0.204 0.105-0.446 0.167-0.701 0.167-0.086 0-0.171-0.007-0.253-0.021l0.009 0.001c-0.692-0.134-1.207-0.735-1.207-1.457 0-0.084 0.007-0.167 0.021-0.248l-0.001 0.009 1.188-6.56c0.012-0.072 0.019-0.155 0.019-0.24 0-0.417-0.171-0.794-0.446-1.064l-0-0-4.811-4.667c-0.27-0.262-0.437-0.628-0.437-1.033 0-0.169 0.029-0.332 0.083-0.483l-0.003 0.010c0.18-0.523 0.628-0.91 1.175-1l0.009-0.001 6.628-0.96c0.516-0.055 0.947-0.367 1.169-0.804l0.004-0.008 2.916-5.988c0.072-0.138 0.161-0.257 0.266-0.359l0-0 0.121-0.094c0.061-0.067 0.131-0.124 0.209-0.17l0.004-0.002 0.146-0.053 0.228-0.094h0.562c0.501 0.053 0.942 0.352 1.173 0.8l2.958 5.961c0.213 0.436 0.628 0.738 1.106 0.811l6.628 0.962c0.567 0.084 1.025 0.472 1.209 0.99l0.003 0.011c0.176 0.533 0.025 1.12-0.386 1.506l-4.987 4.72z"></path>
</svg>
