<!-- Generated by IcoMoon.io -->
<svg version="1.1" xmlns="http://www.w3.org/2000/svg" width="32" height="32" viewBox="0 0 32 32">
<path fill="#5f6368" d="M16 28q-5 0-8.5-3.5t-3.5-8.5 3.5-8.5 8.5-3.5q0.467 0 0.917 0.033t0.883 0.1q-1.367 0.967-2.183 2.517t-0.817 3.35q0 3 2.1 5.1t5.1 2.1q1.833 0 3.367-0.817t2.5-2.183q0.067 0.433 0.1 0.883t0.033 0.917q0 5-3.5 8.5t-8.5 3.5zM16 25.333q2.933 0 5.267-1.617t3.4-4.217q-0.667 0.167-1.333 0.267t-1.333 0.1q-4.1 0-6.983-2.883t-2.883-6.983q0-0.667 0.1-1.333t0.267-1.333q-2.6 1.067-4.217 3.4t-1.617 5.267q0 3.867 2.733 6.6t6.6 2.733z"></path>
</svg>
