<svg width="23" height="23" viewBox="0 0 23 23" xmlns="http://www.w3.org/2000/svg">
    <g transform="translate(1 1)" fill="none" fill-rule="evenodd">
        <circle stroke="#DAE1E1" fill="#F1F4F4" cx="10.5" cy="10.5" r="11"/>
        <path d="M5.833 14.835c0 1.587 2.137 1.998 4.667 1.998 2.517 0 4.667-.396 4.667-1.984 0-1.586-2.136-1.998-4.667-1.998-2.517 0-4.667.397-4.667 1.984zM10.5 11.34a3.077 3.077 0 0 0 3.088-3.087A3.076 3.076 0 0 0 10.5 5.167a3.076 3.076 0 0 0-3.088 3.086A3.077 3.077 0 0 0 10.5 11.34"
              fill="#939B9D" fill-rule="nonzero"/>
    </g>
</svg>
