<!-- Generated by IcoMoon.io -->
<svg version="1.1" xmlns="http://www.w3.org/2000/svg" width="32" height="32" viewBox="0 0 32 32">
<path d="M23.508 26.092c0 0 0 0 0 0-2.215 0-4.062-1.846-4.062-4.062s1.846-4.062 4.062-4.062c0 0 0 0 0 0 2.215 0 4.062 1.846 4.062 4.062 0 0 0 0 0 0 0 1.108-0.492 2.092-1.231 2.831-0.738 0.862-1.723 1.231-2.831 1.231zM23.508 24.246c0 0 0 0 0 0 0.615 0 1.108-0.246 1.6-0.615 0.369-0.369 0.615-0.985 0.615-1.6 0-1.231-0.985-2.215-2.215-2.215 0 0 0 0 0 0-1.231 0-2.215 0.985-2.215 2.215s0.985 2.215 2.215 2.215c0 0 0 0 0 0zM13.785 23.015h-8.369c-0.492 0-0.985-0.369-0.985-0.985s0.369-0.985 0.985-0.985h8.369c0.492 0 0.985 0.369 0.985 0.985s-0.492 0.985-0.985 0.985zM8.492 13.169c0 0 0 0 0 0-2.215 0-4.062-1.846-4.062-4.062s1.846-4.062 4.062-4.062c0 0 0 0 0 0 1.108 0 2.092 0.369 2.831 1.231 0.738 0.738 1.231 1.723 1.231 2.831 0 0 0 0 0 0 0 2.215-1.846 4.062-4.062 4.062zM8.492 11.323c0 0 0 0 0 0 1.231 0 2.215-0.985 2.215-2.215s-0.985-2.215-2.215-2.215c0 0 0 0 0 0-1.231 0-2.215 0.985-2.215 2.215s0.985 2.215 2.215 2.215c0 0 0 0 0 0zM25.969 10.092h-8.369c-0.492 0-0.985-0.369-0.985-0.985s0.369-0.985 0.985-0.985h8.369c0.492 0 0.985 0.369 0.985 0.985s-0.492 0.985-0.985 0.985z"></path>
</svg>
