<!-- Generated by IcoMoon.io -->
<svg version="1.1" xmlns="http://www.w3.org/2000/svg" width="32" height="32" viewBox="0 0 32 32">
<path d="M22.782 9.333c1.685 0 3.452 1.212 4.076 4.16l1.026 8.26c0.754 5.387-2.276 7.58-6.34 7.58h-11.056c-4.076 0-7.2-1.516-6.35-7.58l1.036-8.26c0.53-3.033 2.357-4.16 4.066-4.16zM12.13 13.772c-0.653 0.010-1.179 0.542-1.179 1.196 0 0.006 0 0.011 0 0.017v-0.001c0 0.67 0.528 1.212 1.179 1.212 0.653-0.010 1.179-0.542 1.179-1.196 0-0.006-0-0.011-0-0.017v0.001l-0.014-0.178c-0.079-0.582-0.569-1.026-1.164-1.035h-0.001zM19.847 13.772c-0.652 0.011-1.177 0.542-1.177 1.196 0 0.006 0 0.011 0 0.017v-0.001c0 0.67 0.526 1.212 1.177 1.212 0.653-0.010 1.179-0.542 1.179-1.196 0-0.006-0-0.011-0-0.017v0.001c0-0.005 0-0.010 0-0.016 0-0.655-0.526-1.186-1.178-1.196h-0.001zM16.007 2.667c3.573 0 6.51 2.809 6.66 6.364h-0.036c0 0.009 0.001 0.020 0.001 0.031 0 0.098-0.021 0.192-0.059 0.276l0.002-0.004h-1.916c-0.036-0.089-0.057-0.193-0.059-0.302v-0.001c-0.005-2.557-2.079-4.628-4.636-4.628-0.003 0-0.006 0-0.009 0h0c-0.003 0-0.006 0-0.009 0-2.558 0-4.631 2.071-4.636 4.627v0.001c0.018 0.1 0.018 0.201 0 0.3h-1.963c-0.008-0.045-0.013-0.098-0.013-0.151s0.005-0.106 0.014-0.156l-0.001 0.005c0.161-3.548 3.077-6.363 6.65-6.363 0.004 0 0.008 0 0.012 0h-0.001z"></path>
</svg>
