<svg class="w-4 h-4" width="16" height="16" viewBox="0 0 24 24" fill="none" xmlns="http://www.w3.org/2000/svg"><path d="M21 12C21 7.02944 16.9706 3 12 3C7.02944 3 3 7.02944 3 12C3 16.9706 7.02944 21 12 21C16.9706 21 21 16.9706 21 12ZM23 12C23 18.0751 18.0751 23 12 23C5.92487 23 1 18.0751 1 12C1 5.92487 5.92487 1 12 1C18.0751 1 23 5.92487 23 12Z" fill="#3AA85B" style="fill-opacity:1;"/><path d="M14.3692 9.22462C14.7619 8.90427 15.3409 8.92686 15.707 9.29298C16.0732 9.65909 16.0958 10.2381 15.7754 10.6309L15.707 10.707L11.707 14.707C11.3409 15.0732 10.7619 15.0958 10.3692 14.7754L10.293 14.707L8.29298 12.707L8.22462 12.6309C7.90427 12.2381 7.92686 11.6591 8.29298 11.293C8.65909 10.9269 9.2381 10.9043 9.63087 11.2246L9.70704 11.293L11 12.5859L14.293 9.29298L14.3692 9.22462Z" fill="#3AA85B" style="fill-opacity:1;"/></svg>