<svg id="Layer_1" data-name="Layer 1" xmlns="http://www.w3.org/2000/svg" xmlns:xlink="http://www.w3.org/1999/xlink" viewBox="0 0 1284.02 1080"><defs><style>.cls-1{fill:url(#linear-gradient);}.cls-2{fill:url(#linear-gradient-2);}.cls-3{fill:url(#linear-gradient-3);}.cls-4{fill:url(#linear-gradient-4);}.cls-5{fill:url(#linear-gradient-5);}.cls-6{fill:url(#linear-gradient-6);}.cls-7{fill:url(#linear-gradient-7);}.cls-8{fill:url(#linear-gradient-8);}.cls-9{fill:#fff;}.cls-10{fill:url(#linear-gradient-9);}</style><linearGradient id="linear-gradient" x1="295.62" y1="253.75" x2="1539.15" y2="-22.59" gradientTransform="matrix(1, 0, 0, -1, 0, 1082)" gradientUnits="userSpaceOnUse"><stop offset="0" stop-color="#597f86"/><stop offset="1" stop-color="#41c9c9"/></linearGradient><linearGradient id="linear-gradient-2" x1="306.37" y1="302.12" x2="1549.9" y2="25.78" xlink:href="#linear-gradient"/><linearGradient id="linear-gradient-3" x1="315.21" y1="341.93" x2="1558.74" y2="65.59" xlink:href="#linear-gradient"/><linearGradient id="linear-gradient-4" x1="322.8" y1="376.08" x2="1566.33" y2="99.74" xlink:href="#linear-gradient"/><linearGradient id="linear-gradient-5" x1="328.16" y1="400.18" x2="1571.69" y2="123.84" xlink:href="#linear-gradient"/><linearGradient id="linear-gradient-6" x1="338.16" y1="445.19" x2="1581.69" y2="168.85" xlink:href="#linear-gradient"/><linearGradient id="linear-gradient-7" x1="344.16" y1="472.18" x2="1587.69" y2="195.84" xlink:href="#linear-gradient"/><linearGradient id="linear-gradient-8" x1="350.31" y1="499.85" x2="1593.83" y2="223.51" xlink:href="#linear-gradient"/><linearGradient id="linear-gradient-9" x1="643.06" y1="732.34" x2="1278.2" y2="732.34" gradientTransform="matrix(1, 0, 0, -1, 0, 1082)" gradientUnits="userSpaceOnUse"><stop offset="0" stop-color="#597f86"/><stop offset="0.61" stop-color="#71bebf"/></linearGradient></defs><path class="cls-1" d="M532.06,956.82c-12.4,15-29.94,23.09-50.47,23.09-27.8,0-47.26-10.26-76.13-40.63-51.33-6.63-87.47-45.34-87.47-96,0-55.61,43.2-96.88,102.44-96.88s102.44,40.84,102.44,96.88c-.22,43.84-27.16,78.48-66.94,91.31,9,9.63,17.11,13,26.52,13,11.55,0,21.6-4.49,30.58-13.9ZM420.43,903.14c33.36,0,58.6-24.38,58.6-59.88s-25-59.89-58.6-59.89c-33.36,0-58.6,24.38-58.6,59.89S387.07,903.14,420.43,903.14Z" transform="translate(-317.99)"/><path class="cls-2" d="M676,896.51H589.16l-16.68,40.2H528l83.41-187.13h42.77L738,936.71H692.67ZM662.3,863.79l-29.72-71.65-29.73,71.65Z" transform="translate(-317.99)"/><path class="cls-3" d="M757.47,749.58h43.2V901.43h93.89v35.28H757.47Z" transform="translate(-317.99)"/><path class="cls-4" d="M918.72,749.58h43.2V936.71h-43.2Z" transform="translate(-317.99)"/><path class="cls-5" d="M1168.73,817.38c0,41.7-31.23,67.58-81.27,67.58h-37.64v51.75h-43.2V749.58h81.06C1137.5,749.58,1168.73,775.46,1168.73,817.38Zm-43.84,0c0-20.53-13.48-32.51-39.78-32.51h-35.29v65h35.29C1111.41,849.89,1124.89,837.7,1124.89,817.38Z" transform="translate(-317.99)"/><path class="cls-6" d="M1187.33,918.32l14.76-32.51c15.83,11.55,39.35,19.47,61.81,19.47,25.66,0,36.14-8.56,36.14-20.11,0-35.07-108.86-10.9-108.86-80.41,0-31.86,25.67-58.38,78.92-58.38,23.52,0,47.69,5.56,65,16.46l-13.47,32.94c-17.32-9.84-35.29-14.76-51.75-14.76-25.67,0-35.51,9.63-35.51,21.39,0,34.43,108.86,10.69,108.86,79.34,0,31.22-25.88,58-79.34,58C1234,939.92,1204,930.94,1187.33,918.32Z" transform="translate(-317.99)"/><path class="cls-7" d="M1372.54,749.58h43.2V936.71h-43.2Z" transform="translate(-317.99)"/><path class="cls-8" d="M1445.68,918.32l14.76-32.51c15.82,11.55,39.35,19.47,61.8,19.47,25.66,0,36.14-8.56,36.14-20.11,0-35.07-108.85-10.9-108.85-80.41-.22-31.86,25.45-58.38,78.7-58.38,23.52,0,47.69,5.56,65,16.46l-13.47,32.94C1562.45,785.94,1544.48,781,1528,781c-25.67,0-35.51,9.63-35.51,21.39,0,34.43,108.86,10.69,108.86,79.34,0,31.22-25.88,58-79.34,58C1492.09,939.92,1462.15,930.94,1445.68,918.32Z" transform="translate(-317.99)"/><path class="cls-9" d="M324.19,1038.51v15.4h17.32v4.92H324.19v15.82h19.46v4.92H318v-46.19h25.66v4.92H324.19Z" transform="translate(-317.99)"/><path class="cls-9" d="M390.7,1079.57h-6.2l-25-36.57v36.57h-6.2v-46.19h6.2l25,36.57v-36.57h6.2Z" transform="translate(-317.99)"/><path class="cls-9" d="M430.69,1033.59v4.92h-13v41.06h-6.2v-41.06H398.4v-4.92Z" transform="translate(-317.99)"/><path class="cls-9" d="M444.59,1038.51v15.4h17.33v4.92H444.59v15.82h19.46v4.92H438.39v-46.19h25.66v4.92H444.59Z" transform="translate(-317.99)"/><path class="cls-9" d="M498.7,1079.57l-11.33-18.82h-7.49v18.82h-6.2v-46h15.4a23.47,23.47,0,0,1,9.19,1.71c2.57,1.29,4.49,2.78,5.56,4.92a12.19,12.19,0,0,1,1.93,6.85,12.73,12.73,0,0,1-2.78,8.34,14.74,14.74,0,0,1-8.56,4.91l12,19.25Zm-18.82-23.74h9.2c3.42,0,6-.85,7.7-2.35a8.7,8.7,0,0,0,2.56-6.41,8.08,8.08,0,0,0-2.56-6.42c-1.72-1.5-4.28-2.14-7.7-2.14h-9.2Z" transform="translate(-317.99)"/><path class="cls-9" d="M547.25,1047.07a12.48,12.48,0,0,1-4.07,9.62c-2.78,2.57-6.84,3.85-12.4,3.85h-9.2v19.25h-6.2v-46h15.4q8,0,12.19,3.85A11.29,11.29,0,0,1,547.25,1047.07Zm-16.68,8.34c3.42,0,6-.65,7.7-2.14a7.61,7.61,0,0,0,2.56-6.2c0-5.78-3.42-8.56-10.05-8.56h-9.2v16.9Z" transform="translate(-317.99)"/><path class="cls-9" d="M580.18,1079.57l-11.33-18.82h-7.49v18.82h-6.2v-46h15.4a23.47,23.47,0,0,1,9.19,1.71c2.57,1.29,4.5,2.78,5.56,4.92a12.19,12.19,0,0,1,1.93,6.85,12.73,12.73,0,0,1-2.78,8.34,14.74,14.74,0,0,1-8.56,4.91l12,19.25Zm-19-23.74h9.19c3.43,0,6-.85,7.7-2.35a8.71,8.71,0,0,0,2.57-6.41,8.09,8.09,0,0,0-2.57-6.42c-1.71-1.5-4.27-2.14-7.7-2.14h-9.19Z" transform="translate(-317.99)"/><path class="cls-9" d="M602.85,1033.59v46h-6.2v-46Z" transform="translate(-317.99)"/><path class="cls-9" d="M628.73,1080a21.81,21.81,0,0,1-8.56-1.5,12.41,12.41,0,0,1-5.77-4.49,10.25,10.25,0,0,1-2.14-6.63h6.63a8.2,8.2,0,0,0,2.78,5.56c1.71,1.5,4.06,2.14,7.06,2.14s5.35-.64,7.06-2.14a6.89,6.89,0,0,0,2.56-5.56,5.87,5.87,0,0,0-1.49-4.28,12.34,12.34,0,0,0-3.85-2.56,45.19,45.19,0,0,0-6.21-1.93,56.16,56.16,0,0,1-7.7-2.35,13.29,13.29,0,0,1-4.91-3.63,11.28,11.28,0,0,1-1.93-6.85,11.49,11.49,0,0,1,1.93-6.63,13,13,0,0,1,5.56-4.49,20,20,0,0,1,8.34-1.5q6.74,0,10.9,3.21a12.15,12.15,0,0,1,4.92,8.56h-6.84a8.38,8.38,0,0,0-2.78-4.71,10.7,10.7,0,0,0-6.63-2.14,10.36,10.36,0,0,0-6.42,1.93,6.2,6.2,0,0,0-2.56,5.34,5.32,5.32,0,0,0,1.49,4.07,8.26,8.26,0,0,0,3.64,2.35c1.5.43,3.42,1.07,6.2,1.93a53.32,53.32,0,0,1,7.7,2.56,12.36,12.36,0,0,1,4.92,3.85,11.35,11.35,0,0,1,2.14,6.84,12.34,12.34,0,0,1-1.93,6.42,13.91,13.91,0,0,1-5.56,4.92A21.73,21.73,0,0,1,628.73,1080Z" transform="translate(-317.99)"/><path class="cls-9" d="M660,1038.51v15.4h17.33v4.92H660v15.82h19.46v4.92H653.75v-46.19h25.66v4.92H660Z" transform="translate(-317.99)"/><path class="cls-9" d="M714.91,1052.84V1058H687.54v-5.13Z" transform="translate(-317.99)"/><path class="cls-9" d="M762.82,1046.85a13.56,13.56,0,0,0-5.77-6.2,16.66,16.66,0,0,0-8.77-2.14,17.41,17.41,0,0,0-9,2.14,16.34,16.34,0,0,0-6.21,6.42,19.85,19.85,0,0,0-2.35,9.41,18.69,18.69,0,0,0,2.35,9.41,16.31,16.31,0,0,0,6.21,6.41,18.51,18.51,0,0,0,9,2.14c4.7,0,8.55-1.28,11.55-4.06a17.7,17.7,0,0,0,5.34-10.91h-19v-4.92H771.8v4.71a22.88,22.88,0,0,1-3.63,10.47,23.42,23.42,0,0,1-8.34,7.49,25.87,25.87,0,0,1-23.74-.21,23.95,23.95,0,0,1-8.77-32.72,21.93,21.93,0,0,1,8.77-8.35,25.75,25.75,0,0,1,12.19-3,25.31,25.31,0,0,1,13.47,3.64,20.29,20.29,0,0,1,8.55,10.26Z" transform="translate(-317.99)"/><path class="cls-9" d="M805.16,1079.57l-11.33-18.82h-7.49v18.82h-6.41v-46h15.4a23.47,23.47,0,0,1,9.19,1.71c2.57,1.29,4.49,2.78,5.56,4.92a12.19,12.19,0,0,1,1.93,6.85,12.73,12.73,0,0,1-2.78,8.34,14.74,14.74,0,0,1-8.56,4.91l12,19.25Zm-19-23.74h9.2c3.42,0,6-.85,7.7-2.35a8.7,8.7,0,0,0,2.56-6.41,8.08,8.08,0,0,0-2.56-6.42c-1.72-1.5-4.28-2.14-7.7-2.14h-9.2Z" transform="translate(-317.99)"/><path class="cls-9" d="M849.86,1069.31H829.12l-3.85,10.26h-6.63L836,1033.81h7.27l17.11,45.76h-6.63Zm-1.71-4.92-8.55-23.31L831,1064.39Z" transform="translate(-317.99)"/><path class="cls-9" d="M882.8,1033.59a29.82,29.82,0,0,1,13.47,2.78,19.83,19.83,0,0,1,8.77,7.92c2.14,3.42,3,7.48,3,12.19a24.59,24.59,0,0,1-3,12.19,19.87,19.87,0,0,1-8.77,7.91,32.9,32.9,0,0,1-13.47,2.78h-15v-46h15Zm0,41.06c6.2,0,10.9-1.49,14.11-4.7s4.92-7.7,4.92-13.26c0-5.78-1.71-10.27-4.92-13.47s-7.91-4.92-14.11-4.92h-8.56v36.14h8.56Z" transform="translate(-317.99)"/><path class="cls-9" d="M922.57,1038.51v15.4H939.9v4.92H922.57v15.82H942v4.92H916.37v-46.19H942v4.92H922.57Z" transform="translate(-317.99)"/><path class="cls-9" d="M999.14,1033.59v4.92h-13v41.06h-6.2v-41.06h-13v-4.92Z" transform="translate(-317.99)"/><path class="cls-9" d="M1013,1038.51v15.4h17.32v4.92H1013v15.82h19.46v4.92h-25.66v-46.19h25.66v4.92H1013Z" transform="translate(-317.99)"/><path class="cls-9" d="M1057.09,1080a21.76,21.76,0,0,1-8.55-1.5,12.44,12.44,0,0,1-5.78-4.49,10.29,10.29,0,0,1-2.13-6.63h6.63a8.15,8.15,0,0,0,2.78,5.56c1.71,1.5,4.06,2.14,7,2.14s5.35-.64,7.06-2.14a6.9,6.9,0,0,0,2.57-5.56,5.83,5.83,0,0,0-1.5-4.28,12.23,12.23,0,0,0-3.85-2.56,45.43,45.43,0,0,0-6.2-1.93,55.29,55.29,0,0,1-7.7-2.35,13.33,13.33,0,0,1-4.92-3.63,11.34,11.34,0,0,1-1.92-6.85,11.56,11.56,0,0,1,1.92-6.63,13,13,0,0,1,5.56-4.49,20,20,0,0,1,8.34-1.5q6.73,0,10.91,3.21a12.19,12.19,0,0,1,4.92,8.56h-6.85a8.38,8.38,0,0,0-2.78-4.71,10.7,10.7,0,0,0-6.63-2.14,10.35,10.35,0,0,0-6.41,1.93,6.21,6.21,0,0,0-2.57,5.34,5.33,5.33,0,0,0,1.5,4.07,8.29,8.29,0,0,0,3.63,2.35c1.5.43,3.43,1.07,6.21,1.93a54.18,54.18,0,0,1,7.7,2.56,12.4,12.4,0,0,1,4.91,3.85,11.29,11.29,0,0,1,2.14,6.84,12.42,12.42,0,0,1-1.92,6.42,14,14,0,0,1-5.56,4.92A21,21,0,0,1,1057.09,1080Z" transform="translate(-317.99)"/><path class="cls-9" d="M1111.63,1033.59v4.92h-13.05v41.06h-6.2v-41.06h-13.05v-4.92Z" transform="translate(-317.99)"/><path class="cls-9" d="M1125.53,1033.59v46h-6.2v-46Z" transform="translate(-317.99)"/><path class="cls-9" d="M1173.65,1079.57h-6.2l-25-36.57v36.57h-6.2v-46.19h6.2l25,36.57v-36.57h6.2Z" transform="translate(-317.99)"/><path class="cls-9" d="M1220.48,1046.85a13.5,13.5,0,0,0-5.77-6.2,16.66,16.66,0,0,0-8.77-2.14,17.41,17.41,0,0,0-9,2.14,16.25,16.25,0,0,0-6.2,6.42,19.74,19.74,0,0,0-2.36,9.41,18.59,18.59,0,0,0,2.36,9.41,16.22,16.22,0,0,0,6.2,6.41,18.51,18.51,0,0,0,9,2.14c4.71,0,8.56-1.28,11.55-4.06a17.76,17.76,0,0,0,5.35-10.91h-19v-4.92h25.67v4.71a22.78,22.78,0,0,1-3.64,10.47,23.42,23.42,0,0,1-8.34,7.49,25.87,25.87,0,0,1-23.74-.21,23.95,23.95,0,0,1-8.77-32.72,21.93,21.93,0,0,1,8.77-8.35,25.78,25.78,0,0,1,12.19-3,25.31,25.31,0,0,1,13.47,3.64,20.31,20.31,0,0,1,8.56,10.26Z" transform="translate(-317.99)"/><path class="cls-9" d="M1271,1080a21.79,21.79,0,0,1-8.55-1.5,12.36,12.36,0,0,1-5.77-4.49,10.25,10.25,0,0,1-2.14-6.63h6.63a8.2,8.2,0,0,0,2.78,5.56c1.71,1.5,4.06,2.14,7,2.14s5.35-.64,7.06-2.14a6.9,6.9,0,0,0,2.57-5.56,5.83,5.83,0,0,0-1.5-4.28,12.23,12.23,0,0,0-3.85-2.56,45,45,0,0,0-6.2-1.93,55.72,55.72,0,0,1-7.7-2.35,13.41,13.41,0,0,1-4.92-3.63,11.34,11.34,0,0,1-1.92-6.85,11.56,11.56,0,0,1,1.92-6.63,13.06,13.06,0,0,1,5.56-4.49,20,20,0,0,1,8.34-1.5q6.74,0,10.91,3.21a12.19,12.19,0,0,1,4.92,8.56h-6.84a8.46,8.46,0,0,0-2.79-4.71,10.67,10.67,0,0,0-6.62-2.14,10.36,10.36,0,0,0-6.42,1.93,6.21,6.21,0,0,0-2.57,5.34,5.33,5.33,0,0,0,1.5,4.07,8.26,8.26,0,0,0,3.64,2.35c1.49.43,3.42,1.07,6.2,1.93a53.74,53.74,0,0,1,7.7,2.56,12.5,12.5,0,0,1,4.92,3.85A11.35,11.35,0,0,1,1287,1067a12.42,12.42,0,0,1-1.92,6.42,13.91,13.91,0,0,1-5.56,4.92A20.28,20.28,0,0,1,1271,1080Z" transform="translate(-317.99)"/><path class="cls-9" d="M1317.79,1080a25.78,25.78,0,0,1-12.19-3,23.95,23.95,0,0,1-8.77-32.72,21.93,21.93,0,0,1,8.77-8.35,26.34,26.34,0,0,1,24.38,0,20.09,20.09,0,0,1,8.55,8.35,25.75,25.75,0,0,1,3.21,12.19,23.59,23.59,0,0,1-3.21,12.19A21.36,21.36,0,0,1,1330,1077,25.78,25.78,0,0,1,1317.79,1080Zm0-5.13a17.41,17.41,0,0,0,9-2.14,15,15,0,0,0,6.2-6.42,20.79,20.79,0,0,0,0-19.24,16.25,16.25,0,0,0-6.2-6.42,19.91,19.91,0,0,0-18,0,16.25,16.25,0,0,0-6.2,6.42,20.79,20.79,0,0,0,0,19.24,16.25,16.25,0,0,0,6.2,6.42A19.9,19.9,0,0,0,1317.79,1074.87Z" transform="translate(-317.99)"/><path class="cls-9" d="M1377,1033.59v4.92h-20.74v15.61h16.89V1059h-16.89v20.75h-6.21v-46h27Z" transform="translate(-317.99)"/><path class="cls-9" d="M1414,1033.59v4.92h-13v41.06h-6.2v-41.06h-13v-4.92Z" transform="translate(-317.99)"/><path class="cls-9" d="M1481.61,1033.59l-13.9,46h-7.06l-11.12-37-11.55,37h-6.84l-13.26-46.19h6.63L1435,1072.3l11.54-38.92h7.06l10.91,38.92,10.48-38.92h6.63Z" transform="translate(-317.99)"/><path class="cls-9" d="M1516.68,1069.31h-20.74l-3.85,10.26h-6.63l17.32-45.76h7.27l17.11,45.76h-6.63Zm-1.71-4.92-8.55-23.31-8.56,23.31Z" transform="translate(-317.99)"/><path class="cls-9" d="M1559.88,1079.57l-11.33-18.82h-7.49v18.82h-6.2v-46h15.4a23.47,23.47,0,0,1,9.19,1.71c2.57,1.29,4.49,2.78,5.56,4.92a12.19,12.19,0,0,1,1.93,6.85,12.73,12.73,0,0,1-2.78,8.34,14.74,14.74,0,0,1-8.56,4.91l12,19.25Zm-19-23.74H1550c3.43,0,6-.85,7.7-2.35a8.71,8.71,0,0,0,2.57-6.41,8.09,8.09,0,0,0-2.57-6.42c-1.71-1.5-4.27-2.14-7.7-2.14h-9.19Z" transform="translate(-317.99)"/><path class="cls-9" d="M1582.55,1038.51v15.4h17.32v4.92h-17.32v15.82H1602v4.92h-25.66v-46.19H1602v4.92h-19.46Z" transform="translate(-317.99)"/><path class="cls-10" d="M1277,594.3a90.21,90.21,0,0,0-84.87-75.61,312.68,312.68,0,0,0,76.36-205.24C1268.5,140.34,1128.49,0,955.78,0S643.06,140.34,643.06,313.45s140,313.44,312.72,313.44a310.75,310.75,0,0,0,143.75-35A90.18,90.18,0,1,0,1277,594.31ZM955.78,490.43c-97.51,0-176.57-79.24-176.57-177s79.06-177,176.57-177,176.57,79.24,176.57,177S1053.29,490.43,955.78,490.43Z" transform="translate(-317.99)"/></svg>