<svg class="w-5 h-5" width="20" height="20" viewBox="0 0 24 24" fill="none" xmlns="http://www.w3.org/2000/svg"><path d="M19 5.99957C16.6805 5.99957 13.9706 4.66298 12.1104 3.03961V3.04059C12.0796 3.01429 12.0405 2.99957 12 2.99957C11.9595 2.99957 11.9204 3.01429 11.8896 3.04059L11.8887 3.03961C10.0971 4.60159 7.48931 5.91508 5.21875 5.99567L5 5.99957V12.9996L5.00879 13.4117C5.09782 15.4371 5.8465 16.9385 6.98633 18.106C8.07404 19.22 9.55305 20.0641 11.2539 20.7232L11.9961 20.9947L12.0186 21.0015C14.0236 20.3018 15.7728 19.3811 17.0137 18.108C18.229 16.8611 19 15.2354 19 12.9996V5.99957ZM21 12.9996C21 15.7637 20.021 17.8889 18.4463 19.5045C16.8988 21.0921 14.8204 22.1442 12.6689 22.8941L12.6611 22.897C12.233 23.0421 11.7688 23.0369 11.3438 22.8843V22.8853C11.3379 22.8833 11.3321 22.8805 11.3262 22.8785C11.3246 22.8779 11.3228 22.8781 11.3213 22.8775V22.8765C9.17204 22.132 7.09956 21.0847 5.55566 19.5035C4.07782 17.9899 3.12517 16.0279 3.01172 13.5113L3 12.9996V5.99957C3.00012 5.4693 3.21097 4.96048 3.58594 4.58551C3.96099 4.21058 4.46967 3.99957 5 3.99957L5.32129 3.98785C6.95847 3.86733 9.05353 2.86215 10.582 1.52692L10.5908 1.52008L10.7422 1.40094C11.1082 1.14062 11.5477 0.999573 12 0.999573C12.4523 0.999573 12.8918 1.14062 13.2578 1.40094L13.4092 1.52008L13.418 1.52692L13.7324 1.79156C15.3383 3.08683 17.4277 3.99957 19 3.99957C19.5303 3.99957 20.039 4.21058 20.4141 4.58551C20.789 4.96048 20.9999 5.4693 21 5.99957V12.9996Z" fill="#3AA85B" style="fill-opacity:1;"/><path d="M14.3692 9.22462C14.7619 8.90427 15.3409 8.92686 15.707 9.29298C16.0732 9.65909 16.0958 10.2381 15.7754 10.6309L15.707 10.707L11.707 14.707C11.3409 15.0732 10.7619 15.0958 10.3692 14.7754L10.293 14.707L8.29298 12.707L8.22462 12.6309C7.90427 12.2381 7.92686 11.6591 8.29298 11.293C8.65909 10.9269 9.2381 10.9043 9.63087 11.2246L9.70704 11.293L11 12.5859L14.293 9.29298L14.3692 9.22462Z" fill="#3AA85B" style="fill-opacity:1;"/></svg>